<svg xmlns="http://www.w3.org/2000/svg" width="505" height="320" viewBox="0 0 505 320">
  <g id="Grupo_154815" data-name="Grupo 154815" transform="translate(-180 -1597)">
    <path id="Trazado_162687" data-name="Trazado 162687" d="M10,0H180a10,10,0,0,1,10,10V140a10,10,0,0,1-10,10H10A10,10,0,0,1,0,140V10A10,10,0,0,1,10,0Z" transform="translate(180 1599)" fill="#43a99b"/>
    <path id="Trazado_162688" data-name="Trazado 162688" d="M10,0H180a10,10,0,0,1,10,10V140a10,10,0,0,1-10,10H10A10,10,0,0,1,0,140V10A10,10,0,0,1,10,0Z" transform="translate(180 1766)" fill="#ff8578"/>
    <g id="Grupo_154606" data-name="Grupo 154606" transform="translate(85 215)">
      <rect id="Rectángulo_39392" data-name="Rectángulo 39392" width="234" height="109" transform="translate(285 1404)" fill="#b1e0d9"/>
      <path id="Polígono_5" data-name="Polígono 5" d="M76.5,0,153,83H0Z" transform="translate(600 1382) rotate(90)" fill="#b1e0d9"/>
    </g>
    <g id="Grupo_154607" data-name="Grupo 154607" transform="translate(85 382)">
      <rect id="Rectángulo_39392-2" data-name="Rectángulo 39392" width="234" height="109" transform="translate(285 1404)" fill="#ffb6ae"/>
      <path id="Polígono_5-2" data-name="Polígono 5" d="M76.5,0,153,83H0Z" transform="translate(600 1382) rotate(90)" fill="#ffb6ae"/>
    </g>
    <path id="Trazado_162689" data-name="Trazado 162689" d="M-50.177-3.968a1.479,1.479,0,0,0-.559-1.23A6.946,6.946,0,0,0-52.7-6.111,18.839,18.839,0,0,1-55-7.024q-2.9-1.425-2.9-3.917a3.512,3.512,0,0,1,.723-2.189,4.676,4.676,0,0,1,2.046-1.477,7.961,7.961,0,0,1,2.974-.528,6.963,6.963,0,0,1,2.886.574,4.57,4.57,0,0,1,1.984,1.635,4.271,4.271,0,0,1,.708,2.425h-3.589a1.8,1.8,0,0,0-.559-1.415,2.178,2.178,0,0,0-1.512-.5,2.456,2.456,0,0,0-1.523.426,1.305,1.305,0,0,0-.559,1.082A1.314,1.314,0,0,0-53.7-9.869a7.758,7.758,0,0,0,2.164.964A13.254,13.254,0,0,1-49-7.834a4.273,4.273,0,0,1,2.42,3.845A3.645,3.645,0,0,1-48.055-.913,6.568,6.568,0,0,1-52.105.205a8.036,8.036,0,0,1-3.286-.651A4.955,4.955,0,0,1-57.606-2.23a4.649,4.649,0,0,1-.743-2.61h3.609a2.29,2.29,0,0,0,.62,1.769,2.932,2.932,0,0,0,2.015.569,2.316,2.316,0,0,0,1.41-.385A1.269,1.269,0,0,0-50.177-3.968ZM-38.642,0a3.9,3.9,0,0,1-.328-.995,3.213,3.213,0,0,1-2.666,1.2A3.936,3.936,0,0,1-44.3-.743a3.019,3.019,0,0,1-1.1-2.384,3.1,3.1,0,0,1,1.333-2.728,6.791,6.791,0,0,1,3.876-.923h1.066v-.587q0-1.535-1.323-1.535a1.081,1.081,0,0,0-1.23,1.216h-3.456A3.1,3.1,0,0,1-43.764-10.3a5.753,5.753,0,0,1,3.491-1,5.044,5.044,0,0,1,3.353,1.036,3.6,3.6,0,0,1,1.261,2.84v4.912a5.03,5.03,0,0,0,.472,2.338V0Zm-2.164-2.256a1.928,1.928,0,0,0,1.072-.277,1.735,1.735,0,0,0,.61-.625V-4.932h-1q-1.8,0-1.8,1.62a.989.989,0,0,0,.318.764A1.15,1.15,0,0,0-40.805-2.256Zm11.084-11.6v2.758H-27.9v2.4h-1.825V-3.62a1.3,1.3,0,0,0,.226.872A1.21,1.21,0,0,0-28.6-2.5a5.069,5.069,0,0,0,.861-.062V-.092a6.377,6.377,0,0,1-1.948.3,3.62,3.62,0,0,1-2.635-.841,3.446,3.446,0,0,1-.851-2.553V-8.7h-1.415v-2.4h1.415v-2.758ZM-22.892,0h-3.466V-11.095h3.466Zm-3.671-13.956a1.542,1.542,0,0,1,.533-1.21,2.012,2.012,0,0,1,1.384-.472,2.012,2.012,0,0,1,1.384.472,1.542,1.542,0,0,1,.533,1.21,1.542,1.542,0,0,1-.533,1.21,2.012,2.012,0,0,1-1.384.472,2.012,2.012,0,0,1-1.384-.472A1.542,1.542,0,0,1-26.563-13.956ZM-14.955-3.117a.8.8,0,0,0-.461-.708,7.019,7.019,0,0,0-1.753-.554A8,8,0,0,1-19.3-5.132a3.573,3.573,0,0,1-1.282-1.133,2.706,2.706,0,0,1-.441-1.528,3.066,3.066,0,0,1,1.261-2.517,5.2,5.2,0,0,1,3.3-.99,5.756,5.756,0,0,1,3.527.995A3.11,3.11,0,0,1-11.6-7.69h-3.466q0-1.333-1.4-1.333a1.393,1.393,0,0,0-.913.3.937.937,0,0,0-.369.754.86.86,0,0,0,.451.749,4.263,4.263,0,0,0,1.441.472,12.45,12.45,0,0,1,1.738.441q2.5.861,2.5,3.086A2.906,2.906,0,0,1-12.971-.749a5.913,5.913,0,0,1-3.491.954,6.034,6.034,0,0,1-2.543-.513A4.252,4.252,0,0,1-20.749-1.7a3.158,3.158,0,0,1-.625-1.856h3.23a1.335,1.335,0,0,0,.513,1.123,2.109,2.109,0,0,0,1.261.354,1.659,1.659,0,0,0,1.061-.287A.918.918,0,0,0-14.955-3.117ZM-9.244,0V-8.7h-1.61v-2.4h1.61v-.882a3.833,3.833,0,0,1,1.118-2.943,4.416,4.416,0,0,1,3.138-1.046,6.871,6.871,0,0,1,1.62.215l.01,2.543a3.157,3.157,0,0,0-.851-.092q-1.569,0-1.569,1.354v.851h2.164v2.4H-5.778V0ZM3.85,0a3.9,3.9,0,0,1-.328-.995A3.213,3.213,0,0,1,.856.205,3.936,3.936,0,0,1-1.81-.743a3.019,3.019,0,0,1-1.1-2.384A3.1,3.1,0,0,1-1.574-5.855,6.791,6.791,0,0,1,2.3-6.778H3.368v-.587Q3.368-8.9,2.046-8.9A1.081,1.081,0,0,0,.815-7.685H-2.64A3.1,3.1,0,0,1-1.271-10.3a5.753,5.753,0,0,1,3.491-1,5.044,5.044,0,0,1,3.353,1.036,3.6,3.6,0,0,1,1.261,2.84v4.912A5.03,5.03,0,0,0,7.306-.174V0ZM1.687-2.256a1.928,1.928,0,0,0,1.072-.277,1.735,1.735,0,0,0,.61-.625V-4.932h-1q-1.8,0-1.8,1.62a.989.989,0,0,0,.318.764A1.15,1.15,0,0,0,1.687-2.256Zm11.751-.205a1.537,1.537,0,0,0,1.128-.395,1.448,1.448,0,0,0,.39-1.1H18.2A3.836,3.836,0,0,1,16.888-.964,4.863,4.863,0,0,1,13.52.205,4.924,4.924,0,0,1,9.705-1.312a5.979,5.979,0,0,1-1.395-4.2V-5.66a6.758,6.758,0,0,1,.62-2.969,4.517,4.517,0,0,1,1.789-1.979,5.335,5.335,0,0,1,2.769-.692,4.8,4.8,0,0,1,3.435,1.2A4.255,4.255,0,0,1,18.2-6.85h-3.24a1.9,1.9,0,0,0-.42-1.323,1.451,1.451,0,0,0-1.128-.461q-1.343,0-1.569,1.712a12.083,12.083,0,0,0-.072,1.5,4.746,4.746,0,0,0,.4,2.317A1.384,1.384,0,0,0,13.438-2.461Zm10.91,0a1.537,1.537,0,0,0,1.128-.395,1.448,1.448,0,0,0,.39-1.1h3.24A3.836,3.836,0,0,1,27.8-.964,4.863,4.863,0,0,1,24.43.205a4.924,4.924,0,0,1-3.814-1.518,5.979,5.979,0,0,1-1.395-4.2V-5.66a6.758,6.758,0,0,1,.62-2.969,4.517,4.517,0,0,1,1.789-1.979A5.335,5.335,0,0,1,24.4-11.3a4.8,4.8,0,0,1,3.435,1.2,4.255,4.255,0,0,1,1.271,3.25h-3.24a1.9,1.9,0,0,0-.42-1.323,1.451,1.451,0,0,0-1.128-.461q-1.343,0-1.569,1.712a12.083,12.083,0,0,0-.072,1.5,4.746,4.746,0,0,0,.4,2.317A1.384,1.384,0,0,0,24.348-2.461ZM34.212,0H30.746V-11.095h3.466ZM30.541-13.956a1.542,1.542,0,0,1,.533-1.21,2.012,2.012,0,0,1,1.384-.472,2.012,2.012,0,0,1,1.384.472,1.542,1.542,0,0,1,.533,1.21,1.542,1.542,0,0,1-.533,1.21,2.012,2.012,0,0,1-1.384.472,2.012,2.012,0,0,1-1.384-.472A1.542,1.542,0,0,1,30.541-13.956ZM35.9-5.65a6.548,6.548,0,0,1,.646-2.958A4.62,4.62,0,0,1,38.406-10.6a5.59,5.59,0,0,1,2.84-.7,5.1,5.1,0,0,1,3.927,1.543,5.922,5.922,0,0,1,1.436,4.2v.123a5.746,5.746,0,0,1-1.441,4.117,5.115,5.115,0,0,1-3.9,1.523,5.173,5.173,0,0,1-3.8-1.42,5.555,5.555,0,0,1-1.548-3.85Zm3.456.215a4.128,4.128,0,0,0,.482,2.256,1.606,1.606,0,0,0,1.425.718q1.846,0,1.887-2.84V-5.65q0-2.984-1.907-2.984-1.733,0-1.876,2.574ZM41.718-15.75h3.65l-2.851,3.22-2.82-.005Zm9.587,4.655.113,1.3A3.762,3.762,0,0,1,54.587-11.3a3.165,3.165,0,0,1,2.589,1.036,4.93,4.93,0,0,1,.887,3.117V0H54.6V-7a1.872,1.872,0,0,0-.338-1.236,1.565,1.565,0,0,0-1.23-.395,1.648,1.648,0,0,0-1.507.8V0H48.065V-11.095ZM-48.778,23.371a6.777,6.777,0,0,1,1.138-4.153A3.746,3.746,0,0,1-44.461,17.7a3.186,3.186,0,0,1,2.5,1.169V13.25h3.466V29H-41.6l-.174-1.189a3.272,3.272,0,0,1-2.707,1.395,3.74,3.74,0,0,1-3.138-1.518A6.992,6.992,0,0,1-48.778,23.371Zm3.456.215q0,2.953,1.723,2.953a1.7,1.7,0,0,0,1.641-.964V21.351a1.655,1.655,0,0,0-1.62-.984q-1.6,0-1.733,2.584Zm14.161,5.619a5.7,5.7,0,0,1-4.132-1.523,5.258,5.258,0,0,1-1.579-3.963v-.287a6.814,6.814,0,0,1,.631-3A4.614,4.614,0,0,1-34.4,18.413a5.556,5.556,0,0,1,2.871-.713,4.8,4.8,0,0,1,3.691,1.451A5.7,5.7,0,0,1-26.486,23.2V24.54h-6.87a2.491,2.491,0,0,0,.81,1.466,2.41,2.41,0,0,0,1.62.533,3.106,3.106,0,0,0,2.563-1.148l1.579,1.866a4.414,4.414,0,0,1-1.83,1.42A6.185,6.185,0,0,1-31.162,29.205Zm-.39-8.839q-1.518,0-1.8,2.01h3.486v-.267a1.712,1.712,0,0,0-.42-1.287A1.673,1.673,0,0,0-31.551,20.366ZM-21.451,29h-3.466V13.25h3.466ZM-9.4,26.539a1.537,1.537,0,0,0,1.128-.395,1.448,1.448,0,0,0,.39-1.1h3.24a3.836,3.836,0,0,1-1.307,2.994,4.863,4.863,0,0,1-3.368,1.169,4.924,4.924,0,0,1-3.814-1.518,5.979,5.979,0,0,1-1.395-4.2V23.34a6.758,6.758,0,0,1,.62-2.969,4.517,4.517,0,0,1,1.789-1.979A5.335,5.335,0,0,1-9.352,17.7a4.8,4.8,0,0,1,3.435,1.2,4.255,4.255,0,0,1,1.271,3.25h-3.24a1.9,1.9,0,0,0-.42-1.323,1.451,1.451,0,0,0-1.128-.461q-1.343,0-1.569,1.712a12.083,12.083,0,0,0-.072,1.5,4.746,4.746,0,0,0,.4,2.317A1.384,1.384,0,0,0-9.4,26.539ZM.461,29H-3V13.25H.461Zm5.773,0H2.769V17.905H6.234ZM2.563,15.044a1.542,1.542,0,0,1,.533-1.21,2.012,2.012,0,0,1,1.384-.472,2.012,2.012,0,0,1,1.384.472,1.639,1.639,0,0,1,0,2.42,2.012,2.012,0,0,1-1.384.472A2.012,2.012,0,0,1,3.1,16.254,1.542,1.542,0,0,1,2.563,15.044ZM13.73,29.205A5.7,5.7,0,0,1,9.6,27.682a5.258,5.258,0,0,1-1.579-3.963v-.287a6.814,6.814,0,0,1,.631-3,4.614,4.614,0,0,1,1.841-2.015,5.556,5.556,0,0,1,2.871-.713,4.8,4.8,0,0,1,3.691,1.451A5.7,5.7,0,0,1,18.406,23.2V24.54h-6.87a2.491,2.491,0,0,0,.81,1.466,2.41,2.41,0,0,0,1.62.533,3.106,3.106,0,0,0,2.563-1.148l1.579,1.866a4.414,4.414,0,0,1-1.83,1.42A6.185,6.185,0,0,1,13.73,29.205Zm-.39-8.839q-1.518,0-1.8,2.01h3.486v-.267a1.712,1.712,0,0,0-.42-1.287A1.673,1.673,0,0,0,13.34,20.366Zm9.628-2.461.113,1.3A3.762,3.762,0,0,1,26.25,17.7a3.165,3.165,0,0,1,2.589,1.036,4.93,4.93,0,0,1,.887,3.117V29H26.26V22a1.872,1.872,0,0,0-.338-1.236,1.565,1.565,0,0,0-1.23-.395,1.648,1.648,0,0,0-1.507.8V29H19.729V17.905Zm12.694-2.758v2.758h1.825v2.4H35.663V25.38a1.3,1.3,0,0,0,.226.872,1.21,1.21,0,0,0,.892.246,5.069,5.069,0,0,0,.861-.062v2.471a6.377,6.377,0,0,1-1.948.3,3.62,3.62,0,0,1-2.635-.841,3.446,3.446,0,0,1-.851-2.553V20.3H30.792v-2.4h1.415V15.147Zm8.552,14.058a5.7,5.7,0,0,1-4.132-1.523A5.258,5.258,0,0,1,38.5,23.719v-.287a6.814,6.814,0,0,1,.631-3,4.614,4.614,0,0,1,1.841-2.015,5.556,5.556,0,0,1,2.871-.713,4.8,4.8,0,0,1,3.691,1.451A5.7,5.7,0,0,1,48.891,23.2V24.54h-6.87a2.491,2.491,0,0,0,.81,1.466,2.41,2.41,0,0,0,1.62.533,3.106,3.106,0,0,0,2.563-1.148l1.579,1.866a4.414,4.414,0,0,1-1.83,1.42A6.185,6.185,0,0,1,44.215,29.205Zm-.39-8.839q-1.518,0-1.8,2.01h3.486v-.267a1.712,1.712,0,0,0-.42-1.287A1.673,1.673,0,0,0,43.825,20.366Z" transform="translate(274 1671)" fill="#12263f"/>
    <path id="Trazado_162690" data-name="Trazado 162690" d="M-44.563,0V-14.93h4.809a7.074,7.074,0,0,1,3.558.9A6.307,6.307,0,0,1-33.73-11.5a7.647,7.647,0,0,1,.9,3.666v.687A7.691,7.691,0,0,1-33.7-3.471,6.334,6.334,0,0,1-36.14-.928,6.919,6.919,0,0,1-39.652,0Zm3.6-12.151v9.382h1.251a2.8,2.8,0,0,0,2.379-1.1A5.4,5.4,0,0,0-36.5-7.147v-.646a5.357,5.357,0,0,0-.831-3.261,2.849,2.849,0,0,0-2.42-1.1ZM-27.5,0h-3.466V-11.095H-27.5Zm-3.671-13.956a1.542,1.542,0,0,1,.533-1.21,2.012,2.012,0,0,1,1.384-.472,2.012,2.012,0,0,1,1.384.472,1.542,1.542,0,0,1,.533,1.21,1.542,1.542,0,0,1-.533,1.21,2.012,2.012,0,0,1-1.384.472,2.012,2.012,0,0,1-1.384-.472A1.542,1.542,0,0,1-31.172-13.956ZM-19.564-3.117a.8.8,0,0,0-.461-.708,7.019,7.019,0,0,0-1.753-.554,8,8,0,0,1-2.133-.754,3.573,3.573,0,0,1-1.282-1.133,2.706,2.706,0,0,1-.441-1.528,3.066,3.066,0,0,1,1.261-2.517,5.2,5.2,0,0,1,3.3-.99,5.756,5.756,0,0,1,3.527.995A3.11,3.11,0,0,1-16.211-7.69h-3.466q0-1.333-1.4-1.333a1.393,1.393,0,0,0-.913.3.937.937,0,0,0-.369.754.86.86,0,0,0,.451.749,4.263,4.263,0,0,0,1.441.472,12.45,12.45,0,0,1,1.738.441q2.5.861,2.5,3.086A2.906,2.906,0,0,1-17.58-.749a5.913,5.913,0,0,1-3.491.954,6.034,6.034,0,0,1-2.543-.513A4.252,4.252,0,0,1-25.358-1.7a3.158,3.158,0,0,1-.625-1.856h3.23a1.335,1.335,0,0,0,.513,1.123,2.109,2.109,0,0,0,1.261.354,1.659,1.659,0,0,0,1.061-.287A.918.918,0,0,0-19.564-3.117Zm8.213-7.978.113,1.3A3.815,3.815,0,0,1-8.07-11.3a2.808,2.808,0,0,1,2.84,1.671A3.692,3.692,0,0,1-1.969-11.3Q1.4-11.3,1.5-7.219V0H-1.969V-7a2.115,2.115,0,0,0-.287-1.241A1.222,1.222,0,0,0-3.3-8.634a1.637,1.637,0,0,0-1.528.913l.01.144V0H-8.285V-6.983a2.223,2.223,0,0,0-.277-1.261,1.219,1.219,0,0,0-1.056-.39,1.657,1.657,0,0,0-1.518.913V0h-3.456V-11.095ZM7.116,0H3.65V-11.095H7.116ZM3.445-13.956a1.542,1.542,0,0,1,.533-1.21,2.012,2.012,0,0,1,1.384-.472,2.012,2.012,0,0,1,1.384.472,1.542,1.542,0,0,1,.533,1.21,1.542,1.542,0,0,1-.533,1.21,2.012,2.012,0,0,1-1.384.472,2.012,2.012,0,0,1-1.384-.472A1.542,1.542,0,0,1,3.445-13.956Zm8.972,2.861.113,1.3A3.762,3.762,0,0,1,15.7-11.3a3.165,3.165,0,0,1,2.589,1.036,4.93,4.93,0,0,1,.887,3.117V0H15.709V-7a1.872,1.872,0,0,0-.338-1.236,1.565,1.565,0,0,0-1.23-.395,1.648,1.648,0,0,0-1.507.8V0H9.177V-11.095ZM27.7-1.2a3.563,3.563,0,0,1-2.963,1.4A3.494,3.494,0,0,1,21.969-.856a4.463,4.463,0,0,1-.938-3.051v-7.188h3.456v7.208a1.242,1.242,0,0,0,1.384,1.425,1.806,1.806,0,0,0,1.692-.851v-7.783h3.476V0H27.8ZM36.576,0H33.11V-11.095h3.466ZM32.9-13.956a1.542,1.542,0,0,1,.533-1.21,2.012,2.012,0,0,1,1.384-.472,2.012,2.012,0,0,1,1.384.472,1.542,1.542,0,0,1,.533,1.21,1.542,1.542,0,0,1-.533,1.21,2.012,2.012,0,0,1-1.384.472,2.012,2.012,0,0,1-1.384-.472A1.542,1.542,0,0,1,32.9-13.956Zm12.51,5.988-1.138-.082a2.044,2.044,0,0,0-2.092,1.025V0H38.729V-11.095h3.24l.113,1.425a2.676,2.676,0,0,1,2.43-1.63,3.37,3.37,0,0,1,.964.123ZM-28.408,26.539a1.537,1.537,0,0,0,1.128-.395,1.448,1.448,0,0,0,.39-1.1h3.24a3.836,3.836,0,0,1-1.307,2.994,4.863,4.863,0,0,1-3.368,1.169,4.924,4.924,0,0,1-3.814-1.518,5.979,5.979,0,0,1-1.395-4.2V23.34a6.758,6.758,0,0,1,.62-2.969,4.517,4.517,0,0,1,1.789-1.979,5.335,5.335,0,0,1,2.769-.692,4.8,4.8,0,0,1,3.435,1.2,4.255,4.255,0,0,1,1.271,3.25h-3.24a1.9,1.9,0,0,0-.42-1.323,1.451,1.451,0,0,0-1.128-.461q-1.343,0-1.569,1.712a12.083,12.083,0,0,0-.072,1.5,4.746,4.746,0,0,0,.4,2.317A1.384,1.384,0,0,0-28.408,26.539Zm5.783-3.189a6.548,6.548,0,0,1,.646-2.958A4.62,4.62,0,0,1-20.123,18.4a5.59,5.59,0,0,1,2.84-.7,5.1,5.1,0,0,1,3.927,1.543,5.922,5.922,0,0,1,1.436,4.2v.123a5.746,5.746,0,0,1-1.441,4.117,5.115,5.115,0,0,1-3.9,1.523,5.173,5.173,0,0,1-3.8-1.42,5.555,5.555,0,0,1-1.548-3.85Zm3.456.215a4.128,4.128,0,0,0,.482,2.256,1.606,1.606,0,0,0,1.425.718q1.846,0,1.887-2.84V23.35q0-2.984-1.907-2.984-1.733,0-1.876,2.574Zm14.581,2.317a.8.8,0,0,0-.461-.708A7.019,7.019,0,0,0-6.8,24.622a8,8,0,0,1-2.133-.754,3.573,3.573,0,0,1-1.282-1.133,2.706,2.706,0,0,1-.441-1.528A3.066,3.066,0,0,1-9.4,18.69a5.2,5.2,0,0,1,3.3-.99,5.756,5.756,0,0,1,3.527.995A3.11,3.11,0,0,1-1.236,21.31H-4.7q0-1.333-1.4-1.333a1.393,1.393,0,0,0-.913.3.937.937,0,0,0-.369.754.86.86,0,0,0,.451.749,4.263,4.263,0,0,0,1.441.472,12.45,12.45,0,0,1,1.738.441q2.5.861,2.5,3.086A2.906,2.906,0,0,1-2.6,28.251a5.913,5.913,0,0,1-3.491.954,6.034,6.034,0,0,1-2.543-.513A4.252,4.252,0,0,1-10.382,27.3a3.158,3.158,0,0,1-.625-1.856h3.23a1.335,1.335,0,0,0,.513,1.123A2.109,2.109,0,0,0-6,26.918a1.659,1.659,0,0,0,1.061-.287A.918.918,0,0,0-4.589,25.883ZM4.384,15.147v2.758H6.209v2.4H4.384V25.38a1.3,1.3,0,0,0,.226.872A1.21,1.21,0,0,0,5.5,26.5a5.069,5.069,0,0,0,.861-.062v2.471a6.377,6.377,0,0,1-1.948.3,3.62,3.62,0,0,1-2.635-.841,3.446,3.446,0,0,1-.851-2.553V20.3H-.487v-2.4H.928V15.147Zm2.44,8.2a6.548,6.548,0,0,1,.646-2.958A4.62,4.62,0,0,1,9.326,18.4a5.59,5.59,0,0,1,2.84-.7,5.1,5.1,0,0,1,3.927,1.543,5.922,5.922,0,0,1,1.436,4.2v.123a5.746,5.746,0,0,1-1.441,4.117,5.115,5.115,0,0,1-3.9,1.523,5.173,5.173,0,0,1-3.8-1.42,5.555,5.555,0,0,1-1.548-3.85Zm3.456.215a4.128,4.128,0,0,0,.482,2.256,1.606,1.606,0,0,0,1.425.718q1.846,0,1.887-2.84V23.35q0-2.984-1.907-2.984-1.733,0-1.876,2.574Zm14.581,2.317a.8.8,0,0,0-.461-.708,7.019,7.019,0,0,0-1.753-.554,8,8,0,0,1-2.133-.754,3.573,3.573,0,0,1-1.282-1.133,2.706,2.706,0,0,1-.441-1.528,3.066,3.066,0,0,1,1.261-2.517,5.2,5.2,0,0,1,3.3-.99,5.756,5.756,0,0,1,3.527.995,3.11,3.11,0,0,1,1.333,2.615H24.748q0-1.333-1.4-1.333a1.393,1.393,0,0,0-.913.3.937.937,0,0,0-.369.754.86.86,0,0,0,.451.749,4.263,4.263,0,0,0,1.441.472,12.45,12.45,0,0,1,1.738.441q2.5.861,2.5,3.086a2.906,2.906,0,0,1-1.348,2.471,5.913,5.913,0,0,1-3.491.954,6.034,6.034,0,0,1-2.543-.513A4.252,4.252,0,0,1,19.067,27.3a3.158,3.158,0,0,1-.625-1.856h3.23a1.335,1.335,0,0,0,.513,1.123,2.109,2.109,0,0,0,1.261.354,1.659,1.659,0,0,0,1.061-.287A.918.918,0,0,0,24.861,25.883Z" transform="translate(274 1834)" fill="#12263f"/>
    <path id="Trazado_162691" data-name="Trazado 162691" d="M10.172,15.1H3.7V20.39h7.516V22H1.733V7.07h9.382V8.68H3.7v4.809h6.47Zm4.994-4.194.062,1.395a4.043,4.043,0,0,1,3.322-1.6q3.517,0,3.548,3.968V22H20.2V14.658a2.554,2.554,0,0,0-.549-1.774,2.2,2.2,0,0,0-1.677-.574,2.738,2.738,0,0,0-1.62.492,3.342,3.342,0,0,0-1.087,1.292V22h-1.9V10.905ZM27.532,8.219v2.687H29.6v1.466H27.532v6.889a1.54,1.54,0,0,0,.277,1,1.165,1.165,0,0,0,.943.334,4.593,4.593,0,0,0,.9-.123V22a5.532,5.532,0,0,1-1.456.2,2.362,2.362,0,0,1-1.917-.769,3.3,3.3,0,0,1-.646-2.184v-6.88h-2.02V10.905h2.02V8.219Zm9.649,4.389a5.685,5.685,0,0,0-.933-.072,2.5,2.5,0,0,0-2.533,1.589V22h-1.9V10.905h1.846l.031,1.282A2.954,2.954,0,0,1,36.34,10.7a1.938,1.938,0,0,1,.841.144Zm6.347,9.6a4.848,4.848,0,0,1-3.671-1.482,5.5,5.5,0,0,1-1.415-3.963v-.349a6.658,6.658,0,0,1,.631-2.948,4.919,4.919,0,0,1,1.764-2.03,4.434,4.434,0,0,1,2.456-.733,4.155,4.155,0,0,1,3.363,1.425,6.171,6.171,0,0,1,1.2,4.081V17H40.339a3.944,3.944,0,0,0,.959,2.651,3.014,3.014,0,0,0,2.333,1.01,3.3,3.3,0,0,0,1.7-.41,4.277,4.277,0,0,0,1.22-1.087l1.159.9A4.659,4.659,0,0,1,43.528,22.205Zm-.236-9.946a2.53,2.53,0,0,0-1.928.836,4.062,4.062,0,0,0-.964,2.343h5.558v-.144a3.613,3.613,0,0,0-.779-2.24A2.382,2.382,0,0,0,43.292,12.259Zm6.306,4.1a6.521,6.521,0,0,1,1.2-4.127,4.136,4.136,0,0,1,6.347-.1l.092-1.23H58.97V21.733a4.514,4.514,0,0,1-1.277,3.394,4.711,4.711,0,0,1-3.43,1.241,5.706,5.706,0,0,1-2.348-.513,4.042,4.042,0,0,1-1.753-1.4l.984-1.138A3.71,3.71,0,0,0,54.13,24.82a2.906,2.906,0,0,0,2.158-.779,2.979,2.979,0,0,0,.774-2.194v-.954a3.9,3.9,0,0,1-3.107,1.313A3.79,3.79,0,0,1,50.8,20.636,6.856,6.856,0,0,1,49.6,16.36Zm1.907.215a4.975,4.975,0,0,0,.769,2.948A2.5,2.5,0,0,0,54.428,20.6a2.779,2.779,0,0,0,2.635-1.63V13.9a2.811,2.811,0,0,0-2.615-1.589,2.521,2.521,0,0,0-2.164,1.077A5.418,5.418,0,0,0,51.505,16.576ZM68.681,22a3.985,3.985,0,0,1-.267-1.169,4.233,4.233,0,0,1-3.158,1.374,3.916,3.916,0,0,1-2.692-.928,3,3,0,0,1-1.051-2.353,3.136,3.136,0,0,1,1.318-2.692,6.212,6.212,0,0,1,3.707-.959h1.846V14.4a2.131,2.131,0,0,0-.595-1.584,2.39,2.39,0,0,0-1.753-.59,2.766,2.766,0,0,0-1.7.513,1.511,1.511,0,0,0-.687,1.241H61.739a2.618,2.618,0,0,1,.59-1.6,4.024,4.024,0,0,1,1.6-1.225,5.381,5.381,0,0,1,2.22-.451,4.386,4.386,0,0,1,3,.959A3.458,3.458,0,0,1,70.28,14.3v5.106a6.243,6.243,0,0,0,.39,2.43V22Zm-3.148-1.446a3.334,3.334,0,0,0,1.692-.461,2.791,2.791,0,0,0,1.159-1.2V16.617H66.9q-3.486,0-3.486,2.041A1.727,1.727,0,0,0,64,20.052,2.286,2.286,0,0,0,65.533,20.554Zm14.181-1.5a1.4,1.4,0,0,0-.579-1.195,5.576,5.576,0,0,0-2.02-.733,9.551,9.551,0,0,1-2.287-.738,3.253,3.253,0,0,1-1.251-1.025,2.453,2.453,0,0,1-.405-1.415,2.878,2.878,0,0,1,1.154-2.307,4.505,4.505,0,0,1,2.948-.943,4.636,4.636,0,0,1,3.061.974,3.094,3.094,0,0,1,1.174,2.492H79.6a1.713,1.713,0,0,0-.661-1.343,2.478,2.478,0,0,0-1.666-.564,2.593,2.593,0,0,0-1.62.451,1.42,1.42,0,0,0-.584,1.179,1.151,1.151,0,0,0,.543,1.036,6.687,6.687,0,0,0,1.964.667,10.231,10.231,0,0,1,2.3.759,3.358,3.358,0,0,1,1.307,1.061,2.609,2.609,0,0,1,.426,1.512,2.839,2.839,0,0,1-1.189,2.384,4.989,4.989,0,0,1-3.086.9,5.587,5.587,0,0,1-2.358-.472,3.836,3.836,0,0,1-1.6-1.318,3.176,3.176,0,0,1-.579-1.83h1.9a1.964,1.964,0,0,0,.764,1.512,2.964,2.964,0,0,0,1.882.559,3.059,3.059,0,0,0,1.728-.436A1.339,1.339,0,0,0,79.714,19.057Zm14.171,3.148a4.848,4.848,0,0,1-3.671-1.482A5.5,5.5,0,0,1,88.8,16.76v-.349a6.658,6.658,0,0,1,.631-2.948,4.919,4.919,0,0,1,1.764-2.03,4.434,4.434,0,0,1,2.456-.733,4.155,4.155,0,0,1,3.363,1.425,6.171,6.171,0,0,1,1.2,4.081V17H90.7a3.944,3.944,0,0,0,.959,2.651,3.014,3.014,0,0,0,2.333,1.01,3.3,3.3,0,0,0,1.7-.41,4.277,4.277,0,0,0,1.22-1.087l1.159.9A4.659,4.659,0,0,1,93.885,22.205Zm-.236-9.946a2.53,2.53,0,0,0-1.928.836,4.062,4.062,0,0,0-.964,2.343h5.558v-.144a3.613,3.613,0,0,0-.779-2.24A2.382,2.382,0,0,0,93.649,12.259Zm8.552-1.354.062,1.395a4.043,4.043,0,0,1,3.322-1.6q3.517,0,3.548,3.968V22h-1.9V14.658a2.554,2.554,0,0,0-.549-1.774,2.2,2.2,0,0,0-1.677-.574,2.738,2.738,0,0,0-1.62.492,3.342,3.342,0,0,0-1.087,1.292V22h-1.9V10.905ZM4.009,37.219v2.687H6.081v1.466H4.009v6.889a1.54,1.54,0,0,0,.277,1,1.165,1.165,0,0,0,.943.334,4.593,4.593,0,0,0,.9-.123V51a5.532,5.532,0,0,1-1.456.2,2.362,2.362,0,0,1-1.917-.769,3.3,3.3,0,0,1-.646-2.184v-6.88H.092V39.905h2.02V37.219ZM10.356,51h-1.9V39.905h1.9ZM8.306,36.962a1.132,1.132,0,0,1,.282-.779,1.059,1.059,0,0,1,.836-.318,1.075,1.075,0,0,1,.841.318,1.12,1.12,0,0,1,.287.779,1.084,1.084,0,0,1-.287.769,1.1,1.1,0,0,1-.841.308,1.078,1.078,0,0,1-.836-.308A1.1,1.1,0,0,1,8.306,36.962ZM18,51.205a4.848,4.848,0,0,1-3.671-1.482A5.5,5.5,0,0,1,12.91,45.76v-.349a6.658,6.658,0,0,1,.631-2.948,4.919,4.919,0,0,1,1.764-2.03A4.434,4.434,0,0,1,17.76,39.7a4.155,4.155,0,0,1,3.363,1.425,6.171,6.171,0,0,1,1.2,4.081V46H14.807a3.944,3.944,0,0,0,.959,2.651,3.014,3.014,0,0,0,2.333,1.01,3.3,3.3,0,0,0,1.7-.41,4.277,4.277,0,0,0,1.22-1.087l1.159.9A4.659,4.659,0,0,1,18,51.205Zm-.236-9.946a2.53,2.53,0,0,0-1.928.836,4.062,4.062,0,0,0-.964,2.343h5.558v-.144a3.613,3.613,0,0,0-.779-2.24A2.382,2.382,0,0,0,17.76,41.259ZM26.3,39.905l.051,1.23A4.1,4.1,0,0,1,29.644,39.7a3.172,3.172,0,0,1,3.168,1.784,4.2,4.2,0,0,1,1.441-1.292,4.255,4.255,0,0,1,2.1-.492q3.65,0,3.712,3.866V51h-1.9V43.679a2.548,2.548,0,0,0-.543-1.779,2.393,2.393,0,0,0-1.825-.59,2.515,2.515,0,0,0-1.753.631,2.558,2.558,0,0,0-.81,1.7V51H31.326V43.73a2.117,2.117,0,0,0-2.369-2.42A2.538,2.538,0,0,0,26.4,42.9V51h-1.9V39.905Zm25.994,5.67a6.643,6.643,0,0,1-1.159,4.081A3.714,3.714,0,0,1,48,51.205a4.069,4.069,0,0,1-3.179-1.282v5.342h-1.9V39.905h1.733l.092,1.23a3.908,3.908,0,0,1,3.22-1.436,3.783,3.783,0,0,1,3.163,1.507A6.716,6.716,0,0,1,52.295,45.4Zm-1.9-.215a4.9,4.9,0,0,0-.8-2.963A2.576,2.576,0,0,0,47.4,41.31a2.789,2.789,0,0,0-2.584,1.528v5.3a2.794,2.794,0,0,0,2.6,1.518,2.564,2.564,0,0,0,2.169-1.082A5.351,5.351,0,0,0,50.4,45.36Zm3.8-.01a6.553,6.553,0,0,1,.641-2.933,4.781,4.781,0,0,1,1.784-2.01,4.857,4.857,0,0,1,2.61-.708A4.679,4.679,0,0,1,62.9,41.269a6.036,6.036,0,0,1,1.4,4.173v.133a6.61,6.61,0,0,1-.62,2.907,4.71,4.71,0,0,1-1.774,2,4.913,4.913,0,0,1-2.651.718A4.667,4.667,0,0,1,55.6,49.636a6.005,6.005,0,0,1-1.4-4.153Zm1.907.226a4.746,4.746,0,0,0,.856,2.963,2.9,2.9,0,0,0,4.589-.015,5.19,5.19,0,0,0,.851-3.174,4.738,4.738,0,0,0-.866-2.958,2.755,2.755,0,0,0-2.3-1.133,2.724,2.724,0,0,0-2.266,1.118A5.152,5.152,0,0,0,56.109,45.576Zm17.032,2.481a1.4,1.4,0,0,0-.579-1.195,5.576,5.576,0,0,0-2.02-.733,9.551,9.551,0,0,1-2.287-.738A3.253,3.253,0,0,1,67,44.366a2.453,2.453,0,0,1-.405-1.415,2.878,2.878,0,0,1,1.154-2.307A4.505,4.505,0,0,1,70.7,39.7a4.636,4.636,0,0,1,3.061.974,3.094,3.094,0,0,1,1.174,2.492H73.028a1.713,1.713,0,0,0-.661-1.343,2.478,2.478,0,0,0-1.666-.564,2.593,2.593,0,0,0-1.62.451,1.42,1.42,0,0,0-.584,1.179,1.151,1.151,0,0,0,.543,1.036A6.687,6.687,0,0,0,71,44.591a10.231,10.231,0,0,1,2.3.759,3.358,3.358,0,0,1,1.307,1.061,2.609,2.609,0,0,1,.426,1.512,2.839,2.839,0,0,1-1.189,2.384,4.989,4.989,0,0,1-3.086.9,5.587,5.587,0,0,1-2.358-.472,3.836,3.836,0,0,1-1.6-1.318,3.176,3.176,0,0,1-.579-1.83h1.9a1.964,1.964,0,0,0,.764,1.512,2.964,2.964,0,0,0,1.882.559,3.059,3.059,0,0,0,1.728-.436A1.339,1.339,0,0,0,73.141,48.057Zm14.017,1.6a2.732,2.732,0,0,0,1.774-.615,2.164,2.164,0,0,0,.841-1.538h1.794a3.44,3.44,0,0,1-.656,1.815A4.322,4.322,0,0,1,89.3,50.692a4.66,4.66,0,0,1-2.138.513,4.57,4.57,0,0,1-3.6-1.512,6.024,6.024,0,0,1-1.338-4.137v-.318a6.679,6.679,0,0,1,.595-2.881A4.53,4.53,0,0,1,84.518,40.4a4.85,4.85,0,0,1,2.63-.7,4.45,4.45,0,0,1,3.1,1.118,3.994,3.994,0,0,1,1.318,2.9H89.773a2.614,2.614,0,0,0-.815-1.769,2.536,2.536,0,0,0-1.81-.692,2.655,2.655,0,0,0-2.24,1.041,4.888,4.888,0,0,0-.795,3.01v.359a4.79,4.79,0,0,0,.79,2.953A2.668,2.668,0,0,0,87.158,49.657ZM93.2,45.35a6.553,6.553,0,0,1,.641-2.933,4.781,4.781,0,0,1,1.784-2.01,4.857,4.857,0,0,1,2.61-.708,4.679,4.679,0,0,1,3.666,1.569,6.036,6.036,0,0,1,1.4,4.173v.133a6.61,6.61,0,0,1-.62,2.907,4.71,4.71,0,0,1-1.774,2,4.913,4.913,0,0,1-2.651.718A4.667,4.667,0,0,1,94.6,49.636a6.005,6.005,0,0,1-1.4-4.153Zm1.907.226a4.746,4.746,0,0,0,.856,2.963,2.9,2.9,0,0,0,4.589-.015,5.19,5.19,0,0,0,.851-3.174,4.738,4.738,0,0,0-.866-2.958,2.755,2.755,0,0,0-2.3-1.133,2.724,2.724,0,0,0-2.266,1.118A5.152,5.152,0,0,0,95.1,45.576Zm15.935-3.968a5.685,5.685,0,0,0-.933-.072,2.5,2.5,0,0,0-2.533,1.589V51h-1.9V39.905h1.846l.031,1.282A2.954,2.954,0,0,1,110.2,39.7a1.938,1.938,0,0,1,.841.144Zm4.83-4.389v2.687h2.071v1.466h-2.071v6.889a1.54,1.54,0,0,0,.277,1,1.165,1.165,0,0,0,.943.334,4.593,4.593,0,0,0,.9-.123V51a5.532,5.532,0,0,1-1.456.2,2.362,2.362,0,0,1-1.917-.769,3.3,3.3,0,0,1-.646-2.184v-6.88h-2.02V39.905h2.02V37.219Zm3.579,8.131a6.553,6.553,0,0,1,.641-2.933,4.781,4.781,0,0,1,1.784-2.01,4.857,4.857,0,0,1,2.61-.708,4.679,4.679,0,0,1,3.666,1.569,6.036,6.036,0,0,1,1.4,4.173v.133a6.61,6.61,0,0,1-.62,2.907,4.71,4.71,0,0,1-1.774,2,4.913,4.913,0,0,1-2.651.718,4.667,4.667,0,0,1-3.656-1.569,6.005,6.005,0,0,1-1.4-4.153Zm1.907.226a4.746,4.746,0,0,0,.856,2.963,2.9,2.9,0,0,0,4.589-.015,5.19,5.19,0,0,0,.851-3.174,4.738,4.738,0,0,0-.866-2.958,2.755,2.755,0,0,0-2.3-1.133,2.724,2.724,0,0,0-2.266,1.118A5.152,5.152,0,0,0,121.355,45.576Zm17.032,2.481a1.4,1.4,0,0,0-.579-1.195,5.576,5.576,0,0,0-2.02-.733,9.551,9.551,0,0,1-2.287-.738,3.253,3.253,0,0,1-1.251-1.025,2.453,2.453,0,0,1-.405-1.415A2.878,2.878,0,0,1,133,40.644a4.505,4.505,0,0,1,2.948-.943,4.636,4.636,0,0,1,3.061.974,3.094,3.094,0,0,1,1.174,2.492h-1.907a1.713,1.713,0,0,0-.661-1.343,2.478,2.478,0,0,0-1.666-.564,2.593,2.593,0,0,0-1.62.451,1.42,1.42,0,0,0-.584,1.179,1.151,1.151,0,0,0,.543,1.036,6.687,6.687,0,0,0,1.964.667,10.231,10.231,0,0,1,2.3.759,3.358,3.358,0,0,1,1.307,1.061,2.609,2.609,0,0,1,.426,1.512,2.839,2.839,0,0,1-1.189,2.384,4.989,4.989,0,0,1-3.086.9,5.587,5.587,0,0,1-2.358-.472,3.836,3.836,0,0,1-1.6-1.318,3.176,3.176,0,0,1-.579-1.83h1.9a1.964,1.964,0,0,0,.764,1.512,2.964,2.964,0,0,0,1.882.559,3.059,3.059,0,0,0,1.728-.436A1.339,1.339,0,0,0,138.387,48.057Z" transform="translate(390 1647)" fill="#12263f"/>
    <path id="Trazado_162692" data-name="Trazado 162692" d="M12.048,8.68H7.25V22H5.291V8.68H.5V7.07H12.048Zm6.511,3.927a5.685,5.685,0,0,0-.933-.072,2.5,2.5,0,0,0-2.533,1.589V22H13.2V10.905h1.846l.031,1.282A2.954,2.954,0,0,1,17.719,10.7a1.938,1.938,0,0,1,.841.144ZM26.742,22a3.985,3.985,0,0,1-.267-1.169,4.233,4.233,0,0,1-3.158,1.374,3.916,3.916,0,0,1-2.692-.928,3,3,0,0,1-1.051-2.353,3.136,3.136,0,0,1,1.318-2.692,6.212,6.212,0,0,1,3.707-.959h1.846V14.4a2.131,2.131,0,0,0-.595-1.584,2.39,2.39,0,0,0-1.753-.59,2.766,2.766,0,0,0-1.7.513,1.511,1.511,0,0,0-.687,1.241H19.8a2.618,2.618,0,0,1,.59-1.6,4.024,4.024,0,0,1,1.6-1.225,5.381,5.381,0,0,1,2.22-.451,4.386,4.386,0,0,1,3,.959,3.458,3.458,0,0,1,1.128,2.64v5.106a6.243,6.243,0,0,0,.39,2.43V22Zm-3.148-1.446a3.334,3.334,0,0,0,1.692-.461,2.791,2.791,0,0,0,1.159-1.2V16.617H24.958q-3.486,0-3.486,2.041a1.727,1.727,0,0,0,.595,1.395A2.286,2.286,0,0,0,23.594,20.554Zm9.516-9.649.062,1.395a4.043,4.043,0,0,1,3.322-1.6q3.517,0,3.548,3.968V22h-1.9V14.658a2.554,2.554,0,0,0-.549-1.774,2.2,2.2,0,0,0-1.677-.574,2.738,2.738,0,0,0-1.62.492,3.342,3.342,0,0,0-1.087,1.292V22h-1.9V10.905Zm16.252,8.152a1.4,1.4,0,0,0-.579-1.195,5.576,5.576,0,0,0-2.02-.733,9.551,9.551,0,0,1-2.287-.738,3.253,3.253,0,0,1-1.251-1.025,2.453,2.453,0,0,1-.405-1.415,2.878,2.878,0,0,1,1.154-2.307,4.505,4.505,0,0,1,2.948-.943,4.636,4.636,0,0,1,3.061.974,3.094,3.094,0,0,1,1.174,2.492H49.25a1.713,1.713,0,0,0-.661-1.343,2.478,2.478,0,0,0-1.666-.564,2.593,2.593,0,0,0-1.62.451,1.42,1.42,0,0,0-.584,1.179,1.151,1.151,0,0,0,.543,1.036,6.687,6.687,0,0,0,1.964.667,10.231,10.231,0,0,1,2.3.759,3.358,3.358,0,0,1,1.307,1.061,2.609,2.609,0,0,1,.426,1.512,2.839,2.839,0,0,1-1.189,2.384,4.989,4.989,0,0,1-3.086.9,5.587,5.587,0,0,1-2.358-.472,3.836,3.836,0,0,1-1.6-1.318,3.176,3.176,0,0,1-.579-1.83h1.9A1.964,1.964,0,0,0,45.1,20.1a2.964,2.964,0,0,0,1.882.559,3.059,3.059,0,0,0,1.728-.436A1.339,1.339,0,0,0,49.362,19.057ZM63.1,16.576a6.643,6.643,0,0,1-1.159,4.081,3.714,3.714,0,0,1-3.138,1.548,4.069,4.069,0,0,1-3.179-1.282v5.342h-1.9V10.905h1.733l.092,1.23a3.908,3.908,0,0,1,3.22-1.436,3.783,3.783,0,0,1,3.163,1.507A6.716,6.716,0,0,1,63.1,16.4Zm-1.9-.215a4.9,4.9,0,0,0-.8-2.963,2.576,2.576,0,0,0-2.194-1.087,2.789,2.789,0,0,0-2.584,1.528v5.3a2.794,2.794,0,0,0,2.6,1.518A2.564,2.564,0,0,0,60.4,19.575,5.351,5.351,0,0,0,61.206,16.36Zm3.8-.01a6.553,6.553,0,0,1,.641-2.933,4.781,4.781,0,0,1,1.784-2.01,4.857,4.857,0,0,1,2.61-.708,4.679,4.679,0,0,1,3.666,1.569,6.036,6.036,0,0,1,1.4,4.173v.133a6.61,6.61,0,0,1-.62,2.907,4.71,4.71,0,0,1-1.774,2,4.913,4.913,0,0,1-2.651.718,4.667,4.667,0,0,1-3.656-1.569,6.005,6.005,0,0,1-1.4-4.153Zm1.907.226a4.746,4.746,0,0,0,.856,2.963,2.9,2.9,0,0,0,4.589-.015,5.19,5.19,0,0,0,.851-3.174,4.738,4.738,0,0,0-.866-2.958,2.755,2.755,0,0,0-2.3-1.133,2.724,2.724,0,0,0-2.266,1.118A5.152,5.152,0,0,0,66.917,16.576Zm15.935-3.968a5.685,5.685,0,0,0-.933-.072,2.5,2.5,0,0,0-2.533,1.589V22h-1.9V10.905h1.846l.031,1.282A2.954,2.954,0,0,1,82.011,10.7a1.938,1.938,0,0,1,.841.144Zm4.83-4.389v2.687h2.071v1.466H87.681v6.889a1.54,1.54,0,0,0,.277,1,1.165,1.165,0,0,0,.943.334,4.593,4.593,0,0,0,.9-.123V22a5.532,5.532,0,0,1-1.456.2,2.362,2.362,0,0,1-1.917-.769,3.3,3.3,0,0,1-.646-2.184v-6.88h-2.02V10.905h2.02V8.219Zm8.89,13.986A4.848,4.848,0,0,1,92.9,20.723a5.5,5.5,0,0,1-1.415-3.963v-.349a6.658,6.658,0,0,1,.631-2.948,4.919,4.919,0,0,1,1.764-2.03,4.434,4.434,0,0,1,2.456-.733A4.155,4.155,0,0,1,99.7,12.125a6.171,6.171,0,0,1,1.2,4.081V17H93.382a3.944,3.944,0,0,0,.959,2.651,3.014,3.014,0,0,0,2.333,1.01,3.3,3.3,0,0,0,1.7-.41A4.277,4.277,0,0,0,99.6,19.16l1.159.9A4.659,4.659,0,0,1,96.571,22.205Zm-.236-9.946a2.53,2.53,0,0,0-1.928.836,4.062,4.062,0,0,0-.964,2.343H99v-.144a3.613,3.613,0,0,0-.779-2.24A2.382,2.382,0,0,0,96.335,12.259Zm6.8,8.747a1.188,1.188,0,0,1,.292-.82,1.114,1.114,0,0,1,.877-.328,1.147,1.147,0,0,1,.887.328,1.164,1.164,0,0,1,.3.82,1.1,1.1,0,0,1-.3.79,1.168,1.168,0,0,1-.887.318,1.055,1.055,0,0,1-1.169-1.107ZM4.276,36.07,9.157,48.252,14.038,36.07h2.553V51H14.622V45.186l.185-6.275L9.905,51H8.4L3.507,38.941,3.7,45.186V51H1.733V36.07ZM26.619,51a3.985,3.985,0,0,1-.267-1.169,4.233,4.233,0,0,1-3.158,1.374,3.916,3.916,0,0,1-2.692-.928,3,3,0,0,1-1.051-2.353,3.136,3.136,0,0,1,1.318-2.692,6.212,6.212,0,0,1,3.707-.959h1.846V43.4a2.131,2.131,0,0,0-.595-1.584,2.39,2.39,0,0,0-1.753-.59,2.766,2.766,0,0,0-1.7.513,1.511,1.511,0,0,0-.687,1.241H19.677a2.618,2.618,0,0,1,.59-1.6,4.024,4.024,0,0,1,1.6-1.225,5.381,5.381,0,0,1,2.22-.451,4.386,4.386,0,0,1,3,.959,3.458,3.458,0,0,1,1.128,2.64v5.106a6.243,6.243,0,0,0,.39,2.43V51Zm-3.148-1.446a3.334,3.334,0,0,0,1.692-.461,2.791,2.791,0,0,0,1.159-1.2V45.617H24.835q-3.486,0-3.486,2.041a1.727,1.727,0,0,0,.595,1.395A2.286,2.286,0,0,0,23.471,49.554Zm9.516-9.649.062,1.395a4.043,4.043,0,0,1,3.322-1.6q3.517,0,3.548,3.968V51h-1.9V43.658a2.554,2.554,0,0,0-.549-1.774A2.2,2.2,0,0,0,35.8,41.31a2.738,2.738,0,0,0-1.62.492,3.342,3.342,0,0,0-1.087,1.292V51h-1.9V39.905Zm9.29,5.445a6.553,6.553,0,0,1,.641-2.933,4.781,4.781,0,0,1,1.784-2.01,4.857,4.857,0,0,1,2.61-.708,4.679,4.679,0,0,1,3.666,1.569,6.036,6.036,0,0,1,1.4,4.173v.133a6.61,6.61,0,0,1-.62,2.907,4.71,4.71,0,0,1-1.774,2,4.913,4.913,0,0,1-2.651.718,4.667,4.667,0,0,1-3.656-1.569,6.005,6.005,0,0,1-1.4-4.153Zm1.907.226a4.746,4.746,0,0,0,.856,2.963,2.9,2.9,0,0,0,4.589-.015,5.19,5.19,0,0,0,.851-3.174,4.738,4.738,0,0,0-.866-2.958,2.755,2.755,0,0,0-2.3-1.133,2.724,2.724,0,0,0-2.266,1.118A5.152,5.152,0,0,0,44.184,45.576Zm15.309-.215a6.5,6.5,0,0,1,1.21-4.107,4.117,4.117,0,0,1,6.255-.22V35.25h1.9V51H67.112l-.092-1.189a3.863,3.863,0,0,1-3.168,1.395,3.789,3.789,0,0,1-3.143-1.579A6.573,6.573,0,0,1,59.493,45.5Zm1.9.215a4.921,4.921,0,0,0,.779,2.953A2.519,2.519,0,0,0,64.323,49.6a2.767,2.767,0,0,0,2.635-1.62v-5.1a2.789,2.789,0,0,0-2.615-1.569,2.531,2.531,0,0,0-2.174,1.077A5.418,5.418,0,0,0,61.39,45.576ZM76.4,51.205a4.848,4.848,0,0,1-3.671-1.482,5.5,5.5,0,0,1-1.415-3.963v-.349a6.658,6.658,0,0,1,.631-2.948,4.919,4.919,0,0,1,1.764-2.03,4.434,4.434,0,0,1,2.456-.733,4.155,4.155,0,0,1,3.363,1.425,6.171,6.171,0,0,1,1.2,4.081V46H73.213a3.944,3.944,0,0,0,.959,2.651,3.014,3.014,0,0,0,2.333,1.01,3.3,3.3,0,0,0,1.7-.41,4.277,4.277,0,0,0,1.22-1.087l1.159.9A4.659,4.659,0,0,1,76.4,51.205Zm-.236-9.946a2.53,2.53,0,0,0-1.928.836,4.062,4.062,0,0,0-.964,2.343h5.558v-.144a3.613,3.613,0,0,0-.779-2.24A2.382,2.382,0,0,0,76.166,41.259ZM87.62,45.35a6.553,6.553,0,0,1,.641-2.933,4.781,4.781,0,0,1,1.784-2.01,4.857,4.857,0,0,1,2.61-.708,4.679,4.679,0,0,1,3.666,1.569,6.036,6.036,0,0,1,1.4,4.173v.133a6.61,6.61,0,0,1-.62,2.907,4.71,4.71,0,0,1-1.774,2,4.913,4.913,0,0,1-2.651.718,4.667,4.667,0,0,1-3.656-1.569,6.005,6.005,0,0,1-1.4-4.153Zm1.907.226a4.746,4.746,0,0,0,.856,2.963,2.9,2.9,0,0,0,4.589-.015,5.19,5.19,0,0,0,.851-3.174,4.738,4.738,0,0,0-.866-2.958,2.755,2.755,0,0,0-2.3-1.133,2.724,2.724,0,0,0-2.266,1.118A5.152,5.152,0,0,0,89.527,45.576Zm19.964,0a6.6,6.6,0,0,1-1.169,4.086,3.735,3.735,0,0,1-3.138,1.543,3.868,3.868,0,0,1-3.25-1.487L101.842,51H100.1V35.25H102v5.875a3.846,3.846,0,0,1,3.168-1.425,3.758,3.758,0,0,1,3.174,1.528,6.8,6.8,0,0,1,1.154,4.184Zm-1.9-.215a5.126,5.126,0,0,0-.749-2.994,2.478,2.478,0,0,0-2.153-1.056,2.785,2.785,0,0,0-2.7,1.743v4.8a2.863,2.863,0,0,0,2.717,1.743,2.464,2.464,0,0,0,2.123-1.056A5.451,5.451,0,0,0,107.594,45.36Zm9.649-3.753a5.685,5.685,0,0,0-.933-.072,2.5,2.5,0,0,0-2.533,1.589V51h-1.9V39.905h1.846l.031,1.282A2.954,2.954,0,0,1,116.4,39.7a1.938,1.938,0,0,1,.841.144ZM125.426,51a3.985,3.985,0,0,1-.267-1.169A4.233,4.233,0,0,1,122,51.205a3.916,3.916,0,0,1-2.692-.928,3,3,0,0,1-1.051-2.353,3.136,3.136,0,0,1,1.318-2.692,6.212,6.212,0,0,1,3.707-.959h1.846V43.4a2.131,2.131,0,0,0-.595-1.584,2.39,2.39,0,0,0-1.753-.59,2.766,2.766,0,0,0-1.7.513,1.511,1.511,0,0,0-.687,1.241h-1.907a2.618,2.618,0,0,1,.59-1.6,4.024,4.024,0,0,1,1.6-1.225,5.381,5.381,0,0,1,2.22-.451,4.386,4.386,0,0,1,3,.959,3.458,3.458,0,0,1,1.128,2.64v5.106a6.243,6.243,0,0,0,.39,2.43V51Zm-3.148-1.446a3.334,3.334,0,0,0,1.692-.461,2.791,2.791,0,0,0,1.159-1.2V45.617h-1.487q-3.486,0-3.486,2.041a1.727,1.727,0,0,0,.595,1.395A2.286,2.286,0,0,0,122.278,49.554Z" transform="translate(390 1814)" fill="#12263f"/>
  </g>
</svg>
