<svg xmlns="http://www.w3.org/2000/svg" width="278.946" height="373" viewBox="0 0 278.946 373">
  <g id="Grupo_154824" data-name="Grupo 154824" transform="translate(98.945 -5171.5)">
    <g id="Grupo_154811" data-name="Grupo 154811" transform="translate(-564.092 5041.589)">
      <g id="Boxes" transform="translate(465.146 359.777)">
        <g id="Grupo_154756" data-name="Grupo 154756">
          <g id="Grupo_154751" data-name="Grupo 154751" transform="translate(81.991 70.673)">
            <rect id="Rectángulo_39493" data-name="Rectángulo 39493" width="63.818" height="70.67" fill="#ffc727"/>
            <rect id="Rectángulo_39494" data-name="Rectángulo 39494" width="63.818" height="70.67" opacity="0.1"/>
            <rect id="Rectángulo_39495" data-name="Rectángulo 39495" width="32.953" height="70.673" transform="translate(63.818 0.001)" fill="#ffc727"/>
            <rect id="Rectángulo_39496" data-name="Rectángulo 39496" width="32.953" height="70.673" transform="translate(63.818 0.001)" opacity="0.32"/>
            <path id="Trazado_162608" data-name="Trazado 162608" d="M565.839,393.524h-2.366l-.58-1.176-.812,1.176-1.1-2.421-1.044,2.421h-4.351l-.493-1.615-.464,1.615h-.886V378.252h12.1Z" transform="translate(-528.515 -378.251)" fill="#fff"/>
            <g id="Grupo_154750" data-name="Grupo 154750" transform="translate(66.088 4.869)">
              <path id="Trazado_162609" data-name="Trazado 162609" d="M615.919,443.211q-3.661-7.537-7.255-15.124l-7.15-15.2-7.057-15.267q-3.513-7.646-6.951-15.344,3.662,7.537,7.255,15.124l7.149,15.2,7.058,15.268Q612.478,435.514,615.919,443.211Z" transform="translate(-587.506 -382.275)" fill="#ffc727"/>
              <path id="Trazado_162610" data-name="Trazado 162610" d="M615.919,382.275q-3.444,7.7-6.951,15.344l-7.058,15.267-7.149,15.2q-3.591,7.588-7.255,15.124,3.442-7.7,6.951-15.344l7.057-15.267,7.15-15.2Q612.254,389.81,615.919,382.275Z" transform="translate(-587.506 -382.275)" fill="#ffc727"/>
            </g>
          </g>
          <g id="Grupo_154753" data-name="Grupo 154753" transform="translate(52.447)">
            <rect id="Rectángulo_39497" data-name="Rectángulo 39497" width="63.818" height="70.67" fill="#ffc727"/>
            <rect id="Rectángulo_39498" data-name="Rectángulo 39498" width="63.818" height="70.67" opacity="0.1"/>
            <rect id="Rectángulo_39499" data-name="Rectángulo 39499" width="32.953" height="70.673" transform="translate(63.818 0.001)" fill="#ffc727"/>
            <rect id="Rectángulo_39500" data-name="Rectángulo 39500" width="32.953" height="70.673" transform="translate(63.818 0.001)" opacity="0.32"/>
            <path id="Trazado_162611" data-name="Trazado 162611" d="M541.427,335.126h-2.366l-.58-1.176-.812,1.176-1.1-2.421-1.044,2.421h-4.35l-.493-1.615-.464,1.615h-.886V319.853h12.1Z" transform="translate(-504.103 -319.853)" fill="#fff"/>
            <g id="Grupo_154752" data-name="Grupo 154752" transform="translate(66.087 4.869)">
              <path id="Trazado_162612" data-name="Trazado 162612" d="M591.506,384.813q-3.66-7.539-7.255-15.125l-7.149-15.2-7.058-15.268q-3.513-7.644-6.951-15.344,3.661,7.539,7.256,15.125l7.148,15.2,7.057,15.267Q588.067,377.115,591.506,384.813Z" transform="translate(-563.093 -323.876)" fill="#ffc727"/>
              <path id="Trazado_162613" data-name="Trazado 162613" d="M591.506,323.876q-3.442,7.7-6.951,15.344L577.5,354.488l-7.148,15.2q-3.592,7.588-7.256,15.124,3.442-7.7,6.951-15.344L577.1,354.2l7.149-15.2Q587.843,331.413,591.506,323.876Z" transform="translate(-563.093 -323.876)" fill="#ffc727"/>
            </g>
          </g>
          <g id="Grupo_154755" data-name="Grupo 154755" transform="translate(0 70.673)">
            <rect id="Rectángulo_39501" data-name="Rectángulo 39501" width="63.818" height="70.67" fill="#ffc727"/>
            <rect id="Rectángulo_39502" data-name="Rectángulo 39502" width="63.818" height="70.67" opacity="0.1"/>
            <rect id="Rectángulo_39503" data-name="Rectángulo 39503" width="32.953" height="70.673" transform="translate(63.818 0.001)" fill="#ffc727"/>
            <rect id="Rectángulo_39504" data-name="Rectángulo 39504" width="32.953" height="70.673" transform="translate(63.818 0.001)" opacity="0.32"/>
            <path id="Trazado_162614" data-name="Trazado 162614" d="M498.089,393.524h-2.366l-.58-1.176-.812,1.176-1.1-2.421-1.044,2.421h-4.351l-.493-1.615-.464,1.615h-.886V378.252h12.1Z" transform="translate(-460.765 -378.251)" fill="#fff"/>
            <g id="Grupo_154754" data-name="Grupo 154754" transform="translate(66.088 4.869)">
              <path id="Trazado_162615" data-name="Trazado 162615" d="M548.169,443.212q-3.662-7.539-7.255-15.125l-7.15-15.2-7.058-15.267q-3.511-7.646-6.95-15.344,3.662,7.537,7.255,15.124l7.149,15.2,7.057,15.268Q544.729,435.514,548.169,443.212Z" transform="translate(-519.756 -382.275)" fill="#ffc727"/>
              <path id="Trazado_162616" data-name="Trazado 162616" d="M548.169,382.275q-3.444,7.7-6.953,15.344l-7.057,15.267-7.149,15.2q-3.591,7.588-7.255,15.125,3.442-7.7,6.95-15.345l7.058-15.267,7.15-15.2Q544.5,389.81,548.169,382.275Z" transform="translate(-519.756 -382.275)" fill="#ffc727"/>
            </g>
          </g>
        </g>
      </g>
      <g id="Character" transform="translate(574.283 129.911)">
        <g id="Grupo_154810" data-name="Grupo 154810">
          <g id="Grupo_154773" data-name="Grupo 154773" transform="translate(13.823 115.055)">
            <g id="Grupo_154764" data-name="Grupo 154764" transform="translate(30.17)">
              <g id="Grupo_154760" data-name="Grupo 154760" transform="translate(23.496 190.302)">
                <path id="Trazado_162617" data-name="Trazado 162617" d="M683.649,448.918c-2.318.748-68.379-.109-70.872-1.74-.957-.6-1.394-10.237-1.586-21.892,0-.121,0-.243,0-.364-.045-2.4-.076-4.876-.08-7.382,0-.345,0-.69-.012-1.035l3.206-34.271,44.192.442-4.361,33.951-.051,1.345L653.815,425l-.027.724s25.141,11.637,27.694,13.72C684.015,441.517,685.968,448.181,683.649,448.918Z" transform="translate(-611.095 -382.233)" fill="#ad6359"/>
                <path id="Trazado_162618" data-name="Trazado 162618" d="M683.649,442.966c-2.318.748-68.379-.109-70.872-1.74-.957-.6-1.394-10.237-1.586-21.892,0-.121,0-.243,0-.364-.045-2.4-.076-4.876-.08-7.382,0-.345,0-.69-.012-1.035l43.037.121-.051,1.345-.266,7.028-.027.724s25.141,11.637,27.694,13.72C684.015,435.564,685.968,442.229,683.649,442.966Z" transform="translate(-611.095 -376.281)" fill="#ebebeb"/>
                <g id="Grupo_154759" data-name="Grupo 154759" transform="translate(0.092 42.582)">
                  <path id="Trazado_162619" data-name="Trazado 162619" d="M683.639,441.5c-1.192.385-19.14.344-36.685-.01-3.526-.07-7.034-.151-10.379-.242-12.511-.344-22.85-.859-23.809-1.486-.95-.6-1.384-9.965-1.577-21.4,0-.161-.01-.323-.01-.485,0-.121,0-.252-.01-.374h.05l42.577.081-.021.729s25.143,11.631,27.69,13.713S685.955,440.764,683.639,441.5Z" transform="translate(-611.171 -417.402)" fill="#5263e2"/>
                  <g id="Grupo_154758" data-name="Grupo 154758" transform="translate(4.571)">
                    <g id="Grupo_154757" data-name="Grupo 154757">
                      <path id="Trazado_162620" data-name="Trazado 162620" d="M682.126,435.344c-11.133-.417-56.074-1.052-67.11-.62-.09,0-.091.065,0,.07,11.026.656,55.97.926,67.109.732C682.358,435.523,682.36,435.353,682.126,435.344Z" transform="translate(-614.948 -413.812)" fill="#263238"/>
                      <path id="Trazado_162621" data-name="Trazado 162621" d="M652.6,417.785c-4.371-.875-9.74-.271-13.128,2.808-.132.12.04.3.183.261a61.585,61.585,0,0,1,12.921-2.516A.28.28,0,0,0,652.6,417.785Z" transform="translate(-609.803 -417.419)" fill="#263238"/>
                      <path id="Trazado_162622" data-name="Trazado 162622" d="M655.2,419.394c-4.372-.875-9.741-.271-13.129,2.808-.132.12.04.3.183.261a61.685,61.685,0,0,1,12.921-2.516A.28.28,0,0,0,655.2,419.394Z" transform="translate(-609.258 -417.081)" fill="#263238"/>
                      <path id="Trazado_162623" data-name="Trazado 162623" d="M657.789,421c-4.371-.874-9.74-.271-13.129,2.808-.131.12.04.3.183.261a61.611,61.611,0,0,1,12.922-2.515A.281.281,0,0,0,657.789,421Z" transform="translate(-608.713 -416.742)" fill="#263238"/>
                    </g>
                  </g>
                  <path id="Trazado_162624" data-name="Trazado 162624" d="M646.955,441.491c-3.526-.07-7.034-.151-10.379-.242-12.511-.344-22.85-.859-23.809-1.486-.95-.6-1.384-9.965-1.577-21.4,0-.161-.01-.323-.01-.485,0-.121,0-.252-.01-.374h.05C617.052,421.592,637.607,435.275,646.955,441.491Z" transform="translate(-611.171 -417.402)" fill="#263238"/>
                </g>
              </g>
              <g id="Grupo_154763" data-name="Grupo 154763">
                <path id="Trazado_162625" data-name="Trazado 162625" d="M660.941,458.2H613.363s9.58-111.126,9.206-113.066c-.474-2.486-3.285-13.734-7.023-28.429-1.173-4.6-2.436-9.529-3.75-14.643-3.547-13.824-7.457-28.933-10.864-42.081-5.113-19.7-9.105-35-9.105-35H632.15s4.7,14.9,10.621,34.279c9.651,31.5,22.547,74.855,23.82,85.4C668.651,361.675,660.941,458.2,660.941,458.2Z" transform="translate(-591.649 -224.983)" fill="#263238"/>
                <g id="Grupo_154762" data-name="Grupo 154762" transform="translate(8.231 10.099)">
                  <g id="Grupo_154761" data-name="Grupo 154761" transform="translate(16.026 214.652)">
                    <path id="Trazado_162626" data-name="Trazado 162626" d="M654.474,411.044c-7.266-.151-5.178-.211-12.447-.281-3.556-.034-26.927-.238-30.249.312a.077.077,0,0,0,0,.148c3.323.551,26.693.347,30.249.313,7.268-.07,5.181-.129,12.447-.281A.106.106,0,0,0,654.474,411.044Z" transform="translate(-611.723 -410.698)" fill="#37474f"/>
                  </g>
                  <path id="Trazado_162627" data-name="Trazado 162627" d="M629.945,336.586c-1.56-6.879-3.891-13.618-5.92-20.369q-6.184-20.576-12.446-41.13-3.124-10.278-6.276-20.549-1.6-5.184-3.208-10.364c-1.059-3.376-2.264-6.725-3.219-10.132-.388-1.386-.6-.624-.1,1.135,1,3.548,1.994,7.1,3.029,10.641q3.073,10.516,6.187,21.02,6.187,20.908,12.482,41.785,3.14,10.472,6.3,20.939a85.652,85.652,0,0,1,2.572,10.128,46.711,46.711,0,0,1,.421,10.835c-.456,7.279-1.3,14.549-1.973,21.811s-1.347,14.555-2.02,21.832q-2.011,21.725-3.986,43.453c-.165,1.836-.326,3.672-.467,5.51-.047.615.882.569.948-.023,1.567-14.321,2.768-28.689,4.113-43.033q2.006-21.409,4.009-42.819c.335-3.582.716-7.173.719-10.775A44.374,44.374,0,0,0,629.945,336.586Z" transform="translate(-598.481 -233.328)" fill="#37474f"/>
                </g>
                <path id="Trazado_162628" data-name="Trazado 162628" d="M627.424,224.983c-2.8,21.656-8.135,62.262-12.026,91.72-9.1-35.693-23.719-91.72-23.719-91.72Z" transform="translate(-591.68 -224.983)" fill="#37474f"/>
              </g>
            </g>
            <g id="Grupo_154772" data-name="Grupo 154772">
              <g id="Grupo_154768" data-name="Grupo 154768" transform="translate(3.132 191.203)">
                <path id="Trazado_162629" data-name="Trazado 162629" d="M642.024,449.4c-2.314.756-68.38.142-70.879-1.481-.96-.6-1.432-10.232-1.666-21.886l0-.366c-.053-2.4-.093-4.875-.107-7.381,0-.345,0-.69-.017-1.035-.154-16.819,1.06-34.273,1.06-34.273l43.183.282-1.205,33.954-.046,1.345-.242,7.029-.023.724s25.183,11.546,27.744,13.619C642.362,442,644.341,448.653,642.024,449.4Z" transform="translate(-569.338 -382.977)" fill="#ad6359"/>
                <path id="Trazado_162630" data-name="Trazado 162630" d="M642.022,443.452c-2.314.756-68.38.142-70.879-1.481-.96-.6-1.432-10.232-1.666-21.886l0-.366c-.053-2.4-.093-4.875-.106-7.381,0-.345,0-.69-.017-1.035l43.038-.036-.046,1.345-.242,7.029-.023.724s25.183,11.546,27.744,13.619C642.36,436.049,644.338,442.707,642.022,443.452Z" transform="translate(-569.336 -377.031)" fill="#ebebeb"/>
                <g id="Grupo_154767" data-name="Grupo 154767" transform="translate(0.137 42.423)">
                  <path id="Trazado_162631" data-name="Trazado 162631" d="M642,442c-2.314.756-68.379.142-70.878-1.481-.96-.6-1.432-10.232-1.666-21.886l0-.366,42.627-.079-.023.724s25.183,11.546,27.744,13.619C642.338,434.595,644.317,441.252,642,442Z" transform="translate(-569.451 -417.999)" fill="#5263e2"/>
                  <g id="Grupo_154766" data-name="Grupo 154766" transform="translate(4.646)">
                    <g id="Grupo_154765" data-name="Grupo 154765">
                      <path id="Trazado_162632" data-name="Trazado 162632" d="M640.47,435.84c-11.134-.378-56.077-.848-67.112-.375-.09,0-.09.065,0,.07,11.027.615,55.972.721,67.111.486C640.7,436.016,640.7,435.847,640.47,435.84Z" transform="translate(-573.291 -414.409)" fill="#263238"/>
                      <path id="Trazado_162633" data-name="Trazado 162633" d="M610.881,418.384c-4.375-.859-9.741-.236-13.118,2.855-.132.12.041.3.183.261a61.66,61.66,0,0,1,12.913-2.563A.28.28,0,0,0,610.881,418.384Z" transform="translate(-568.157 -418.032)" fill="#263238"/>
                      <path id="Trazado_162634" data-name="Trazado 162634" d="M613.48,419.984c-4.375-.859-9.741-.236-13.118,2.855-.132.12.041.3.184.26a61.629,61.629,0,0,1,12.911-2.562A.28.28,0,0,0,613.48,419.984Z" transform="translate(-567.61 -417.695)" fill="#263238"/>
                      <path id="Trazado_162635" data-name="Trazado 162635" d="M616.079,421.583c-4.375-.858-9.741-.236-13.118,2.856-.131.12.041.3.184.26a61.562,61.562,0,0,1,12.911-2.562A.281.281,0,0,0,616.079,421.583Z" transform="translate(-567.064 -417.359)" fill="#263238"/>
                    </g>
                  </g>
                </g>
              </g>
              <g id="Grupo_154771" data-name="Grupo 154771">
                <path id="Trazado_162636" data-name="Trazado 162636" d="M636.451,224.983s-.931,19.292-5.347,34.572c-.353,1.263-.738,2.506-1.152,3.7a71.706,71.706,0,0,0-11.621,5.972s-.465,15.523-.931,32.834c-.514,19.353-1.05,40.94-.939,45.518.4,17.129-2.142,111.317-2.142,111.317l-47.569.191s8.6-105.182,8.539-111.457c-.091-10.086,2.3-54.663,4.153-87.174,1.133-20.03,2.062-35.472,2.062-35.472Z" transform="translate(-566.75 -224.983)" fill="#263238"/>
                <g id="Grupo_154770" data-name="Grupo 154770" transform="translate(2.677 6.725)">
                  <path id="Trazado_162637" data-name="Trazado 162637" d="M611.712,411.319c-7.267-.121-5.18-.189-12.447-.228-3.557-.019-26.928-.123-30.249.44a.078.078,0,0,0,0,.149c3.326.536,26.694.232,30.25.183,7.267-.1,5.18-.15,12.445-.333A.106.106,0,0,0,611.712,411.319Z" transform="translate(-568.962 -192.594)" fill="#37474f"/>
                  <path id="Trazado_162638" data-name="Trazado 162638" d="M583.912,230.708c-.875,26.538-1.8,53.08-2.99,79.607-1.191,26.619-2.8,53.228-5.022,79.781-1.245,14.835-2.418,35.7-4.019,50.5-.01.1.142.135.155.034,3.464-26.326,5.394-58.878,7.1-85.37s2.857-53.023,3.76-79.549c.511-15.006.9-30.016,1.351-45.024C584.249,230.477,583.919,230.5,583.912,230.708Z" transform="translate(-568.349 -230.54)" fill="#37474f"/>
                  <g id="Grupo_154769" data-name="Grupo 154769" transform="translate(48.312 30.371)">
                    <path id="Trazado_162639" data-name="Trazado 162639" d="M622.563,255.661a88.348,88.348,0,0,0-13.6,7.122.158.158,0,0,0,.143.281c4.589-2.229,9.275-4.377,13.736-6.856A.307.307,0,0,0,622.563,255.661Z" transform="translate(-608.883 -255.636)" fill="#37474f"/>
                  </g>
                  <path id="Trazado_162640" data-name="Trazado 162640" d="M624.426,236.806c-.411,2.212-.948,4.4-1.426,6.6-.448,2.063-.778,4.169-1.323,6.208a10.572,10.572,0,0,1-2.892,5.2c-.81.753-1.7,1.418-2.564,2.107-.465.372-.967.729-1.451,1.1.063-.292.114-.589.166-.891.148-.839.289-1.679.431-2.517q.468-2.8.9-5.6c.56-3.67,1.078-7.381,1.843-11.015a.118.118,0,0,0-.229-.057c-.915,3.6-1.924,7.164-2.72,10.8-.391,1.781-1.785,10.577-1.847,11.2-.063.643-.116,1.288-.139,1.933a7.657,7.657,0,0,0,0,1.975c.038.16.231.134.3.025l.01.006a7.788,7.788,0,0,0,.559-1.911c.161-.627.3-1.265.416-1.9.041-.23.073-.466.105-.7.866-.526,1.673-1.222,2.482-1.808.873-.633,1.762-1.248,2.587-1.944a9.907,9.907,0,0,0,3.159-4.935,35.946,35.946,0,0,0,1.036-6.321c.279-2.5.484-5.011.833-7.5C624.676,236.715,624.454,236.655,624.426,236.806Z" transform="translate(-559.685 -229.241)" fill="#37474f"/>
                </g>
              </g>
            </g>
          </g>
          <g id="Grupo_154809" data-name="Grupo 154809">
            <g id="Grupo_154776" data-name="Grupo 154776" transform="translate(63.72 47.229)">
              <path id="Trazado_162641" data-name="Trazado 162641" d="M609.6,180.168c2.146,8.338,10.669,27.383,24.979,43.091,5.531,6.061,49.321,12.477,53.946,11.151,3.235-.928,12.721-28.934,9.634-31.287-5.791-4.411-46.863.72-48.491-.342-2.486-1.635-18.739-14.858-28.875-26.928C613.395,167.055,606.045,166.293,609.6,180.168Z" transform="translate(-607.835 -168.829)" fill="#ad6359"/>
              <g id="Grupo_154775" data-name="Grupo 154775">
                <path id="Trazado_162642" data-name="Trazado 162642" d="M619.1,205.206l26.483-7.777s-21.091-21.832-29.105-26.5c-9.02-5.256-9.735.506-7.287,10.122S619.1,205.206,619.1,205.206Z" transform="translate(-607.981 -168.938)" fill="#5263e2"/>
                <g id="Grupo_154774" data-name="Grupo 154774" transform="translate(10.471 24.883)">
                  <path id="Trazado_162643" data-name="Trazado 162643" d="M638.66,189.5c-.957.127-9.249,2.422-11.041,2.959s-9.134,2.664-10.938,3.374a.068.068,0,0,0,.033.132c1.9-.356,9.307-2.48,11.143-2.99s9.989-2.961,10.848-3.355C638.778,189.586,638.725,189.491,638.66,189.5Z" transform="translate(-616.633 -189.499)" fill="#263238"/>
                </g>
                <path id="Trazado_162644" data-name="Trazado 162644" d="M629.314,202.2l-10.208,3s-7.461-14.538-9.913-24.146c-1.789-7.028-1.888-12.007,1.708-12.114Z" transform="translate(-607.98 -168.937)" fill="#263238"/>
              </g>
            </g>
            <g id="Grupo_154779" data-name="Grupo 154779" transform="translate(24.153 45.236)">
              <g id="Grupo_154778" data-name="Grupo 154778">
                <g id="Grupo_154777" data-name="Grupo 154777">
                  <path id="Trazado_162645" data-name="Trazado 162645" d="M575.286,256.287s68.667-.329,68.667-.323c0,1.346-14.9-76.755-22.071-86.112-1.536-2-12.028-4.531-16.766-.122C584.359,189.05,575.29,257.161,575.286,256.287Z" transform="translate(-575.286 -167.291)" fill="#5263e2"/>
                </g>
              </g>
              <path id="Trazado_162646" data-name="Trazado 162646" d="M620.874,187.079l-8.776.609.53,11.575,6.036,1.6,3.449-2.739Z" transform="translate(-567.549 -163.132)" opacity="0.1"/>
            </g>
            <g id="Grupo_154793" data-name="Grupo 154793" transform="translate(52.311)">
              <g id="Grupo_154781" data-name="Grupo 154781" transform="translate(3.36 31.717)">
                <g id="Grupo_154780" data-name="Grupo 154780">
                  <path id="Trazado_162647" data-name="Trazado 162647" d="M611.811,181.58c-3.266.789-8.1-5.411-10.455-10.074-.16-.321.432-3.614.962-7.648.312-2.449.6-5.184.686-7.7.015-.516,15.645,4.36,15.645,4.36a40.107,40.107,0,0,0-1.847,9.605,5.582,5.582,0,0,0,.074,1.036c0,.047.016.105.017.172C617.148,173.3,615.306,180.737,611.811,181.58Z" transform="translate(-601.33 -156.119)" fill="#ad6359"/>
                </g>
                <path id="Trazado_162648" data-name="Trazado 162648" d="M616.495,171.147c0,.051.01.111.01.172a10.531,10.531,0,0,1-1.617.03c-9.277-.514-11.339-12.218-11.713-15.178,2.789.495,15.089,4.335,15.089,4.335a40.187,40.187,0,0,0-1.849,9.611A5.606,5.606,0,0,0,616.495,171.147Z" transform="translate(-600.943 -156.109)" fill="#263238"/>
              </g>
              <g id="Grupo_154790" data-name="Grupo 154790" transform="translate(0 2.364)">
                <g id="Grupo_154782" data-name="Grupo 154782" transform="translate(1.847 0.568)">
                  <path id="Trazado_162649" data-name="Trazado 162649" d="M600.338,142.3c-1.33,5.7,2.7,21.63,6.909,24.961,6.107,4.829,15.565,4.7,19.532-2.521,3.846-6.995-1.771-27.667-6.425-30.638C613.5,129.721,602.3,133.878,600.338,142.3Z" transform="translate(-600.079 -132.334)" fill="#ad6359"/>
                </g>
                <g id="Grupo_154788" data-name="Grupo 154788" transform="translate(13.982 12.571)">
                  <g id="Grupo_154783" data-name="Grupo 154783" transform="translate(1.855 5.664)">
                    <path id="Trazado_162650" data-name="Trazado 162650" d="M613.594,147.675c-.019-.039-.071.071-.059.115.3,1.066.463,2.338-.42,2.935-.028.018-.011.071.024.058C614.283,150.322,614.049,148.636,613.594,147.675Z" transform="translate(-611.334 -146.778)" fill="#263238"/>
                    <path id="Trazado_162651" data-name="Trazado 162651" d="M612.662,146.945c-1.761.3-1.038,3.8.593,3.522C614.861,150.2,614.139,146.7,612.662,146.945Z" transform="translate(-611.64 -146.933)" fill="#263238"/>
                  </g>
                  <g id="Grupo_154784" data-name="Grupo 154784" transform="translate(9.955 4.062)">
                    <path id="Trazado_162652" data-name="Trazado 162652" d="M618.334,146.751c0-.044.1.034.1.079.189,1.092.589,2.309,1.645,2.466.033,0,.041.059,0,.062C618.854,149.437,618.339,147.815,618.334,146.751Z" transform="translate(-618.334 -145.371)" fill="#263238"/>
                    <path id="Trazado_162653" data-name="Trazado 162653" d="M619.069,145.656c1.716-.491,2.575,2.977.985,3.433C618.489,149.539,617.63,146.069,619.069,145.656Z" transform="translate(-618.334 -145.609)" fill="#263238"/>
                  </g>
                  <path id="Trazado_162654" data-name="Trazado 162654" d="M611.273,146.347a13.879,13.879,0,0,0,1.256-.756c.479-.3.892-.483,1.135-1.018a.754.754,0,0,0-.3-.87,1.872,1.872,0,0,0-1.889.192,2.757,2.757,0,0,0-1.313,1.487A.806.806,0,0,0,611.273,146.347Z" transform="translate(-610.107 -141.986)" fill="#263238"/>
                  <path id="Trazado_162655" data-name="Trazado 162655" d="M620.31,144.32a13.744,13.744,0,0,1-1.464-.073,2.377,2.377,0,0,1-1.48-.361.753.753,0,0,1-.144-.911,1.874,1.874,0,0,1,1.755-.722,2.749,2.749,0,0,1,1.86.69A.806.806,0,0,1,620.31,144.32Z" transform="translate(-608.631 -142.252)" fill="#263238"/>
                  <path id="Trazado_162656" data-name="Trazado 162656" d="M614.149,156.172c.312.2.644.5,1.043.448a2.913,2.913,0,0,0,1.11-.513.038.038,0,0,1,.058.046,1.492,1.492,0,0,1-1.254.873,1.176,1.176,0,0,1-1.05-.783C614.026,156.182,614.1,156.142,614.149,156.172Z" transform="translate(-609.279 -139.342)" fill="#263238"/>
                  <g id="Grupo_154786" data-name="Grupo 154786" transform="translate(5.303 0.606)">
                    <g id="Grupo_154785" data-name="Grupo 154785">
                      <path id="Trazado_162657" data-name="Trazado 162657" d="M614.526,155.5a3.769,3.769,0,0,0,2.8,1.134,4.737,4.737,0,0,0,1.34-.213,1.386,1.386,0,0,0,.248-.082c.077-.025.146-.05.23-.086a.273.273,0,0,0,.167-.287v-.008a.525.525,0,0,0-.034-.109v-.007l-.022-.094c-.149-.84-.492-2.092-.492-2.092.336.09,2.035.468,1.922.038a56.835,56.835,0,0,0-3.74-10.876.1.1,0,0,0-.192.069c.788,3.464,2.18,6.764,3.027,10.23a6.587,6.587,0,0,0-1.852-.168c-.111.058.707,2.408.744,2.791a.153.153,0,0,1,0,.042,5.228,5.228,0,0,1-4.066-.4C614.514,155.332,614.443,155.423,614.526,155.5Z" transform="translate(-614.489 -142.753)" fill="#263238"/>
                    </g>
                  </g>
                  <g id="Grupo_154787" data-name="Grupo 154787" transform="translate(5.168 13.318)">
                    <path id="Trazado_162658" data-name="Trazado 162658" d="M618.113,153.886a4.474,4.474,0,0,1-1.473,1.721,2,2,0,0,1-1.181.322c-.912-.048-1.1-.839-1.079-1.551a4.813,4.813,0,0,1,.173-1.121A5.79,5.79,0,0,0,618.113,153.886Z" transform="translate(-614.378 -153.257)" fill="#263238"/>
                    <path id="Trazado_162659" data-name="Trazado 162659" d="M616.64,155.415a2,2,0,0,1-1.181.322c-.912-.048-1.1-.839-1.079-1.551A2.076,2.076,0,0,1,616.64,155.415Z" transform="translate(-614.378 -153.065)" fill="#ff98b9"/>
                  </g>
                </g>
                <path id="Trazado_162660" data-name="Trazado 162660" d="M623.883,139.033c-.876-1.254-1.846-2.5-2.729-2.6s-1.015,2.027-2.873,2.54c-2.509.693-4.22-1.391-7.827-.909-5.182.692-6.558,5.422-5.2,12.7,1.219,6.5-2.569,7.91-2.569,7.91s-5.3-13.793-2.241-19.346,11.861-9.533,18.987-6.293C622.032,134.21,623.883,139.033,623.883,139.033Z" transform="translate(-598.355 -131.865)" fill="#263238"/>
                <g id="Grupo_154789" data-name="Grupo 154789" transform="translate(0 19.91)">
                  <path id="Trazado_162661" data-name="Trazado 162661" d="M605.63,151.991s-4.1-4.892-6.345-3.387,1.146,8.816,4.011,9.606a2.832,2.832,0,0,0,3.649-1.846Z" transform="translate(-598.553 -148.317)" fill="#ad6359"/>
                  <path id="Trazado_162662" data-name="Trazado 162662" d="M600.012,150.266a.038.038,0,0,0-.008.075c2.014.62,3.195,2.333,4.075,4.141a1.563,1.563,0,0,0-2.367-.223c-.047.041.007.116.062.1a1.744,1.744,0,0,1,1.963.439,8.456,8.456,0,0,1,1.049,1.466c.105.166.411.046.328-.149l-.019-.044C604.927,153.587,602.7,150.283,600.012,150.266Z" transform="translate(-598.254 -147.907)" fill="#263238"/>
                </g>
              </g>
              <g id="Grupo_154792" data-name="Grupo 154792" transform="translate(0.537)">
                <path id="Trazado_162663" data-name="Trazado 162663" d="M622.92,136.2c-1.577-.069-9.931,1.813-13.387,4.17s-9.1,9.089-9.392,9.441-4.707-13.157,6.027-17.866C617.863,126.816,622.92,136.2,622.92,136.2Z" transform="translate(-598.997 -129.806)" fill="#5263e2"/>
                <g id="Grupo_154791" data-name="Grupo 154791" transform="translate(1.679)">
                  <path id="Trazado_162664" data-name="Trazado 162664" d="M600.385,149.227s5.517-11.234,9.208-14.271,12.679-6.1,18.878-4.694c4.834,1.1-4.923,8.938-4.923,8.938a3.149,3.149,0,0,0-2.153-1.815c-3-.562-8.109,1.314-10.923,2.911C606.932,142.306,600.385,149.227,600.385,149.227Z" transform="translate(-600.385 -129.911)" fill="#fed981"/>
                  <path id="Trazado_162665" data-name="Trazado 162665" d="M600.385,149.227s5.517-11.234,9.208-14.271,12.679-6.1,18.878-4.694c4.834,1.1-4.923,8.938-4.923,8.938a3.149,3.149,0,0,0-2.153-1.815c-3-.562-8.109,1.314-10.923,2.911C606.932,142.306,600.385,149.227,600.385,149.227Z" transform="translate(-600.385 -129.911)" opacity="0.2"/>
                </g>
              </g>
            </g>
            <g id="Grupo_154795" data-name="Grupo 154795" transform="translate(21.534 92.274)">
              <rect id="Rectángulo_39505" data-name="Rectángulo 39505" width="54.159" height="59.974" fill="#ffc727"/>
              <rect id="Rectángulo_39506" data-name="Rectángulo 39506" width="54.159" height="59.974" opacity="0.1"/>
              <rect id="Rectángulo_39507" data-name="Rectángulo 39507" width="27.965" height="59.977" transform="translate(54.159 0)" fill="#ffc727"/>
              <rect id="Rectángulo_39508" data-name="Rectángulo 39508" width="27.965" height="59.977" transform="translate(54.159 0)" opacity="0.32"/>
              <path id="Trazado_162666" data-name="Trazado 162666" d="M601.079,219.12h-2.008l-.492-1-.689,1-.935-2.055-.886,2.055h-3.692l-.418-1.371-.394,1.371h-.752V206.159h10.267Z" transform="translate(-569.403 -206.158)" fill="#fff"/>
              <g id="Grupo_154794" data-name="Grupo 154794" transform="translate(56.085 4.132)">
                <path id="Trazado_162667" data-name="Trazado 162667" d="M643.578,261.287q-3.106-6.4-6.156-12.835l-6.068-12.9-5.989-12.956q-2.981-6.488-5.9-13.022,3.108,6.4,6.157,12.835l6.067,12.9,5.988,12.956Q640.659,254.753,643.578,261.287Z" transform="translate(-619.466 -209.573)" fill="#ffc727"/>
                <path id="Trazado_162668" data-name="Trazado 162668" d="M643.578,209.573q-2.921,6.531-5.9,13.022l-5.988,12.956-6.067,12.9q-3.048,6.439-6.157,12.835,2.921-6.533,5.9-13.022l5.989-12.956,6.068-12.9Q640.469,215.969,643.578,209.573Z" transform="translate(-619.466 -209.573)" fill="#ffc727"/>
              </g>
            </g>
            <g id="Grupo_154803" data-name="Grupo 154803" transform="translate(0 47.429)">
              <g id="Grupo_154799" data-name="Grupo 154799" transform="translate(0 0.831)">
                <g id="Grupo_154798" data-name="Grupo 154798">
                  <path id="Trazado_162669" data-name="Trazado 162669" d="M596.829,174.337c-13.21,9.94-38.844,32.2-41.086,44.249-2.942,15.805,10.519,46.89,16.262,52.9,3.879,4.057,20.942-10.848,21.964-14.583s-12.832-28.893-12.948-31.786,17.623-29.362,25.312-41.1C616.035,169.208,608.01,165.922,596.829,174.337Z" transform="translate(-555.328 -169.79)" fill="#ad6359"/>
                  <g id="Grupo_154797" data-name="Grupo 154797" transform="translate(15.086 76.866)">
                    <path id="Trazado_162670" data-name="Trazado 162670" d="M595.679,245.691c-1.206-1.4-.482-2.042,2.741-1.414,3.261.628,15.444,5.848,16.9,1.43s-15.887-11.533-21.333-12.167-14.479.247-14.479.247C582.611,235.85,589.651,241.568,595.679,245.691Z" transform="translate(-565.331 -233.306)" fill="#ad6359"/>
                    <path id="Trazado_162671" data-name="Trazado 162671" d="M567.794,256.036c5.47,9.127,21.33,14.879,33.164,15.1a5.868,5.868,0,0,0,3.679-1.1c5.3.192,6.985-2.253,6.985-2.253,4.995-1.332,6.372-4.071,6.372-4.071s6.228.159,6.948-3.591c.82-4.2-8.085-3.6-13.186-6.266-11.684-6.107-26.586-18.056-29.78-20.153Z" transform="translate(-567.794 -233.222)" fill="#ad6359"/>
                    <g id="Grupo_154796" data-name="Grupo 154796" transform="translate(19.809 22.814)">
                      <path id="Trazado_162672" data-name="Trazado 162672" d="M590.314,252.185a85.015,85.015,0,0,0,10.534,4.767,85.215,85.215,0,0,0,12.36,2.766.1.1,0,0,1-.021.2,44.828,44.828,0,0,1-22.954-7.582C590.078,252.236,590.14,252.1,590.314,252.185Z" transform="translate(-582.905 -252.157)" fill="#263238"/>
                      <path id="Trazado_162673" data-name="Trazado 162673" d="M586.427,257.571c3.474,1.495,9.6,4.082,21.333,5.079.038,0,.045.069,0,.071a40.237,40.237,0,0,1-21.406-4.986C586.147,257.624,586.2,257.471,586.427,257.571Z" transform="translate(-583.729 -251.026)" fill="#263238"/>
                      <path id="Trazado_162674" data-name="Trazado 162674" d="M584.394,260.5c6,2.316,10.083,3.017,16.779,3.879.038,0,.039.073,0,.071-7.711-.181-10.489-1.121-16.883-3.755C584.066,260.606,584.161,260.411,584.394,260.5Z" transform="translate(-584.162 -250.408)" fill="#263238"/>
                    </g>
                  </g>
                </g>
              </g>
              <g id="Grupo_154802" data-name="Grupo 154802" transform="translate(15.677)">
                <path id="Trazado_162675" data-name="Trazado 162675" d="M593.357,203.866,568.282,192.33s24.036-18.541,32.642-22c9.686-3.892,9.558,1.913,5.74,11.072S593.357,203.866,593.357,203.866Z" transform="translate(-568.282 -169.103)" fill="#5263e2"/>
                <g id="Grupo_154801" data-name="Grupo 154801" transform="translate(5.485 14.725)">
                  <g id="Grupo_154800" data-name="Grupo 154800" transform="translate(0 5.67)">
                    <path id="Trazado_162676" data-name="Trazado 162676" d="M572.906,185.958c.928.265,8.8,3.737,10.494,4.529s8.652,3.961,10.333,4.925a.068.068,0,0,1-.051.126c-1.824-.627-8.849-3.8-10.592-4.575s-9.454-4.38-10.248-4.893C572.775,186.026,572.842,185.94,572.906,185.958Z" transform="translate(-572.814 -185.956)" fill="#263238"/>
                  </g>
                  <path id="Trazado_162677" data-name="Trazado 162677" d="M587.392,200.381c.779.292,1.976.8,1.976.8,1.85-3.384,4.07-6.6,6.064-9.9,2.031-3.359,4.159-6.649,6.23-9.983a.048.048,0,0,1,.081.05c-1.054,1.962-2.109,3.913-3.184,5.854.177-.218.355-.436.53-.654.626-.781,1.273-1.542,1.873-2.342.051-.068.159,0,.112.069a23.407,23.407,0,0,1-1.728,2.481c-.451.549-.937,1.063-1.429,1.571-.623,1.11-1.238,2.223-1.892,3.321-2,3.362-3.966,7.245-6.225,10.443,0,0-1.7-.966-2.509-1.543C587.193,200.471,587.277,200.338,587.392,200.381Z" transform="translate(-569.78 -181.271)" fill="#263238"/>
                </g>
              </g>
            </g>
            <g id="Grupo_154805" data-name="Grupo 154805" transform="translate(108.663 55.495)">
              <path id="Trazado_162678" data-name="Trazado 162678" d="M645.118,237.858l41.246,3.4,13.845-56.411-41.246-3.4Z" transform="translate(-645.118 -174.574)" fill="#37474f"/>
              <g id="Grupo_154804" data-name="Grupo 154804" transform="translate(23.704)">
                <path id="Trazado_162679" data-name="Trazado 162679" d="M664.705,186.015,684.26,187.6l1.521-6.224-19.554-1.588Z" transform="translate(-664.705 -174.922)" fill="#a6a6a6"/>
                <path id="Trazado_162680" data-name="Trazado 162680" d="M669.631,181l2.408.2.7-2.87,5.851.475-.7,2.87,2.408.2,1.277-5.229-10.7-.869Z" transform="translate(-663.67 -175.768)" fill="#a6a6a6"/>
              </g>
            </g>
            <g id="Grupo_154808" data-name="Grupo 154808" transform="translate(134.365 75.773)">
              <g id="Grupo_154807" data-name="Grupo 154807">
                <path id="Trazado_162681" data-name="Trazado 162681" d="M701.787,208.169a4.5,4.5,0,0,1-3.488,4.087s3.364,2.75,2.413,6.234c-.489,1.792-3.783,2.585-3.783,2.585s2.6,2.321,1.564,5.367c-.825,2.425-4,2.857-4,2.857s1.457,3.39-.178,5.591c-3.314,4.466-24.773-.391-26.3-9.046-.712-4.034,4.466-2.563,4.466-2.563s-6.933-3.913-6.046-8.362,7.5-2.132,7.5-2.132-6.686-3.851-5.3-8.371c1.443-4.706,7.658-1.256,7.658-1.256s-4.04-4.314-2.186-7.532c3.062-5.313,12.266,4.3,17.235,4.245l1.947-7.348S702.191,204.264,701.787,208.169Z" transform="translate(-666.356 -192.524)" fill="#ad6359"/>
                <g id="Grupo_154806" data-name="Grupo 154806" transform="translate(5.736 10.034)">
                  <path id="Trazado_162682" data-name="Trazado 162682" d="M693,224.182a.058.058,0,0,1,0,.116,38.163,38.163,0,0,1-21.808-6.321c-.2-.142-.06-.53.191-.416A78.148,78.148,0,0,0,693,224.182Z" transform="translate(-671.096 -197.3)" fill="#263238"/>
                  <path id="Trazado_162683" data-name="Trazado 162683" d="M695.787,217.679c.085.011.067.152-.025.154-7.675.084-16.868-2.59-23.36-8.375-.224-.2-.224-.6.05-.391C677.06,212.586,688.741,216.7,695.787,217.679Z" transform="translate(-670.856 -199.093)" fill="#263238"/>
                  <path id="Trazado_162684" data-name="Trazado 162684" d="M674.323,200.846c6.442,5.305,13.935,8.013,22.033,9.686.105.022.063.168-.03.174-4.184.26-9.234-1.345-13.057-2.925a22.006,22.006,0,0,1-9.131-6.711C674.042,200.952,674.185,200.734,674.323,200.846Z" transform="translate(-670.463 -200.815)" fill="#263238"/>
                </g>
              </g>
            </g>
            <path id="Trazado_162685" data-name="Trazado 162685" d="M618.275,170.993a19.746,19.746,0,0,1-1.008,3.557,20.523,20.523,0,0,1-1.538,3.318,10.064,10.064,0,0,1-2.219,2.745,3.322,3.322,0,0,1-1.445.69,3.363,3.363,0,0,1-1.537-.332,15.931,15.931,0,0,1-5.55-4.477c-.4-.46-.773-.948-1.156-1.427-.355-.5-.725-.992-1.066-1.505s-.7-1.017-1.032-1.539-.647-1.055-.987-1.578a28.9,28.9,0,0,0,3.634,6.536,14.66,14.66,0,0,0,5.79,4.907,4.152,4.152,0,0,0,2.069.364,4,4,0,0,0,1.86-.922,9.6,9.6,0,0,0,2.292-3.109A17.88,17.88,0,0,0,618.275,170.993Z" transform="translate(-545.784 -121.392)" fill="#263238"/>
          </g>
        </g>
      </g>
    </g>
  </g>
</svg>
