<svg xmlns="http://www.w3.org/2000/svg" xmlns:xlink="http://www.w3.org/1999/xlink" width="528.075" height="340.217" viewBox="0 0 528.075 340.217">
  <defs>
    <linearGradient id="linear-gradient" x1="0.5" x2="0.5" y2="1.285" gradientUnits="objectBoundingBox">
      <stop offset="0" stop-color="#fed981"/>
      <stop offset="0.522" stop-color="#ff8578"/>
      <stop offset="1" stop-color="#5263e2"/>
    </linearGradient>
    <clipPath id="clip-path">
      <rect id="Rectángulo_38524" data-name="Rectángulo 38524" width="415.453" height="315.07" fill="none"/>
    </clipPath>
    <clipPath id="clip-path-2">
      <path id="Trazado_162522" data-name="Trazado 162522" d="M1521.589,917.447s4.448,18.119-4.838,17.295-14.57-11.7-11.159-18.368S1519.425,905.483,1521.589,917.447Z" transform="translate(-1504.55 -909.876)" fill="#da8c8d"/>
    </clipPath>
    <clipPath id="clip-path-3">
      <path id="Trazado_162525" data-name="Trazado 162525" d="M1500.353,946.058a74.93,74.93,0,0,1-1.477,15.178,8.04,8.04,0,0,0,4.3,8.92,12.327,12.327,0,0,0,4.992,1.441c4.543.046.1-19.7.1-19.7Z" transform="translate(-1498.695 -946.058)" fill="#da8c8d"/>
    </clipPath>
    <clipPath id="clip-path-4">
      <path id="Trazado_162533" data-name="Trazado 162533" d="M1484.837,1194.708l-26.129-18.319-3.176-13.514-14.633,5.957s5.859,14.19,7.531,15.576,30.919,12.5,30.919,12.5,1.49,2.619,2.62,2.87c3.576.8,10.347-2.87,10.347-2.87Z" transform="translate(-1440.899 -1162.875)" fill="#da8c8d"/>
    </clipPath>
    <clipPath id="clip-path-5">
      <rect id="Rectángulo_39441" data-name="Rectángulo 39441" width="27.407" height="44.188" fill="#f1b873"/>
    </clipPath>
    <clipPath id="clip-path-6">
      <rect id="Rectángulo_39456" data-name="Rectángulo 39456" width="87.16" height="104.273" fill="#b2bfdf"/>
    </clipPath>
    <clipPath id="clip-path-7">
      <path id="Trazado_162559" data-name="Trazado 162559" d="M2329.256,1004.4l-38.134-21.844-3.733,6.151s28.722,28.6,31.122,29.522S2329.256,1004.4,2329.256,1004.4Z" transform="translate(-2287.389 -982.556)" fill="#da8c8d"/>
    </clipPath>
    <clipPath id="clip-path-8">
      <path id="Trazado_162568" data-name="Trazado 162568" d="M2468.487,888.981c5.113-11.519,16.654-4.043,18.341,3.526.742,3.333-.834,6.949-3.626,9.825a60.526,60.526,0,0,0-.856,14.816s-7.361,3.575-11.834,2.488c-2.474-.6-.737-6.62,1.31-11.88a13.392,13.392,0,0,1-2.9-.136C2459.594,906.134,2468.487,888.981,2468.487,888.981Z" transform="translate(-2464.659 -883.039)" fill="#da8c8d"/>
    </clipPath>
    <clipPath id="clip-path-9">
      <path id="Trazado_162573" data-name="Trazado 162573" d="M2459.311,1002.317a17.944,17.944,0,0,0-4.762-11.3c-3.833-4.089-14.942-6.275-19.119.948,0,0,16.425.109,15.409,17.04-.633,10.552-3.927,23.371-28.583,27.867v32.46l2.664.577a53.224,53.224,0,0,0,37.221-5.552l4.762-2.66Z" transform="translate(-2422.257 -987.232)" fill="#39548b"/>
    </clipPath>
    <clipPath id="clip-path-10">
      <path id="Trazado_162579" data-name="Trazado 162579" d="M2224.7,1111.962l-5.631-15.363-6.756,5.062-36.842,19.885s-7.491,2.468-7.694,2.721-5.322,8.462-5.322,8.462,1.636.672,2.27,0,4.6-5.4,4.6-5.4.72,2.706,2.05,3.4,4.877-.063,5.573-.634,2.769-2.934,2.77-2.934c4.687-1.359,36.966-10.723,37.681-11.009C2218.167,1115.843,2224.7,1111.962,2224.7,1111.962Z" transform="translate(-2162.452 -1096.599)" fill="#da8c8d"/>
    </clipPath>
    <clipPath id="clip-path-11">
      <path id="Trazado_162590" data-name="Trazado 162590" d="M2921.023,1031.852s-7.151-41.009-37.194-39.292c-20.676,1.182-24.148,10.138-24.148,10.138s-9.605,17.362-12.661,30.758l10.416,3.812-2.6,34.463s41.863,9.932,56.122-5.536l-6.356-31.069Z" transform="translate(-2847.02 -992.507)" fill="#f9dd89"/>
    </clipPath>
    <clipPath id="clip-path-12">
      <path id="Trazado_162593" data-name="Trazado 162593" d="M2921.625,915.952c-9.632,1.079-5.444-17.86-5.444-17.86,1.962-12.487,13.973-9.368,17.679-2.522a11.111,11.111,0,0,1,.666,7.862c.119,4.608.687,12.161,2.954,18.09,0,0-6.325,5.431-11.045,5.589-2.62.087-2.509-6.225-1.894-11.863A12.332,12.332,0,0,1,2921.625,915.952Z" transform="translate(-2915.275 -889.58)" fill="#da8c8d"/>
    </clipPath>
    <clipPath id="clip-path-13">
      <path id="Trazado_162600" data-name="Trazado 162600" d="M2986.345,1134.343l-14.841,2.832,2.036,11.328-20.226,28.4-11.939,2.031,3.478,1.937a11.423,11.423,0,0,0,5.49,1.44c1.028.006,2.194-.017,3.3-.106,3-.24,7.482-3.27,7.482-3.27s27.627-26.018,27.743-28.344S2986.345,1134.343,2986.345,1134.343Z" transform="translate(-2941.375 -1134.343)" fill="#da8c8d"/>
    </clipPath>
  </defs>
  <g id="Grupo_154814" data-name="Grupo 154814" transform="translate(-869.759 -153.629)">
    <g id="Grupo_152991" data-name="Grupo 152991" transform="translate(833.796 -83.233)">
      <path id="Trazado_160111" data-name="Trazado 160111" d="M103.737,528.882h436.2c12.211-68.93,12.827-141.383-16.345-205.018-8.671-18.914-20.152-36.987-36.33-50.07-12.868-10.406-28.33-17.319-44.359-21.434-42.257-10.85-89.187-1.773-124.351,24.05-19,13.954-32.921,34.736-51.3,49.878-25.846,21.3-46.9,14.814-77.844,11.266-29.737-3.409-65.377-6.775-92.012,9.814-28.85,17.969-40.175,55.779-36.223,89.536S87.642,498.947,103.737,528.882Z" transform="translate(-24.448 -11)" fill="#fff"/>
      <path id="Trazado_160112" data-name="Trazado 160112" d="M103.737,528.882h436.2c12.211-68.93,12.827-141.383-16.345-205.018-8.671-18.914-20.152-36.987-36.33-50.07-12.868-10.406-28.33-17.319-44.359-21.434-42.257-10.85-89.187-1.773-124.351,24.05-19,13.954-32.921,34.736-51.3,49.878-25.846,21.3-46.9,14.814-77.844,11.266-29.737-3.409-65.377-6.775-92.012,9.814-28.85,17.969-40.175,55.779-36.223,89.536S87.642,498.947,103.737,528.882Z" transform="translate(11.823 -0.771)" fill="#fff"/>
      <path id="Trazado_160067" data-name="Trazado 160067" d="M103.737,528.882h436.2c12.211-68.93,12.827-141.383-16.345-205.018-8.671-18.914-20.152-36.987-36.33-50.07-12.868-10.406-28.33-17.319-44.359-21.434-42.257-10.85-89.187-1.773-124.351,24.05-19,13.954-32.921,34.736-51.3,49.878-25.846,21.3-46.9,14.814-77.844,11.266-29.737-3.409-65.377-6.775-92.012,9.814-28.85,17.969-40.175,55.779-36.223,89.536S87.642,498.947,103.737,528.882Z" transform="translate(-1.711 -0.77)" fill="url(#linear-gradient)"/>
    </g>
    <g id="Grupo_145046" data-name="Grupo 145046" transform="translate(874 178.776)">
      <g id="Grupo_145045" data-name="Grupo 145045" clip-path="url(#clip-path)">
        <path id="Trazado_149904" data-name="Trazado 149904" d="M32.977,85.132H6.046a6.046,6.046,0,1,1,0-12.091H32.977a6.046,6.046,0,0,1,0,12.091" fill="#f45742"/>
        <path id="Trazado_149905" data-name="Trazado 149905" d="M265.083,309.268a5.8,5.8,0,1,1-5.8-5.8,5.8,5.8,0,0,1,5.8,5.8" fill="#a797fc"/>
        <path id="Trazado_149906" data-name="Trazado 149906" d="M50.381,17.56A17.56,17.56,0,1,1,32.821,0a17.56,17.56,0,0,1,17.56,17.56" fill="#43a99b"/>
        <path id="Trazado_149907" data-name="Trazado 149907" d="M409.606,79.086h-47.6a5.847,5.847,0,1,1,0-11.693h47.6a5.847,5.847,0,0,1,0,11.693" transform="translate(100 67)" fill="#fff3cd"/>
      </g>
    </g>
    <g id="Grupo_154742" data-name="Grupo 154742" transform="translate(248.854 -659.896)">
      <g id="Grupo_154662" data-name="Grupo 154662" transform="translate(745.457 872.943)">
        <path id="Trazado_162512" data-name="Trazado 162512" d="M1561.83,1038.823s4.327,8.679,7.1,15.708,2.714,10.486,2.714,10.486h-9.138Z" transform="translate(-1516.1 -1000.154)" fill="#f9dd89"/>
        <path id="Trazado_162513" data-name="Trazado 162513" d="M1481.722,1376.354l6.208.094s10.193-55.066,11.135-66.307c.825-9.848-6.99-52.953-9.329-64.182a4.816,4.816,0,0,0-3.188-3.589c-6.937-2.311-25.625-7.268-26.7,5.982-1.327,16.29,20.936,63.03,20.936,63.03s-5.28,10.614.943,64.972" transform="translate(-1442.724 -1144.467)" fill="#39548b"/>
        <path id="Trazado_162514" data-name="Trazado 162514" d="M1504.288,1364.417l4.775-24.339s5.206,29.171.958,37.617Z" transform="translate(-1474.724 -1216.774)" fill="#343766"/>
        <g id="Grupo_154648" data-name="Grupo 154648" transform="translate(10.376 228.858)">
          <path id="Trazado_162515" data-name="Trazado 162515" d="M1435.99,1715.791h8.125l-.475,5.361s8.006-1.043,10.347,4.753H1436.37Z" transform="translate(-1435.99 -1715.791)" fill="#1f1949"/>
          <path id="Trazado_162516" data-name="Trazado 162516" d="M1535.752,1715.791h7.475l-.475,5.361s9.2-1.043,11,4.753h-17.617Z" transform="translate(-1507.724 -1715.791)" fill="#1f1949"/>
        </g>
        <g id="Grupo_154649" data-name="Grupo 154649" transform="translate(0 87.463)">
          <path id="Trazado_162517" data-name="Trazado 162517" d="M1426.181,1290.279q1.737-12.523,3.474-25.045l3.424-24.685q1.11-8.007,2.221-16.014c.149-1.072.555-2.4.005-3.2a1.7,1.7,0,0,0-1.176-.659c-8.917-1.594-18.065-9.776-26.819-7.891-4.3.925-8.038,13.4-8.2,18.2-.853,25.9,8.106,57.574,8.106,57.574s-5.576,11.761,2.6,65.341h7.475Z" transform="translate(-1399.057 -1212.504)" fill="#39548b"/>
        </g>
        <path id="Trazado_162518" data-name="Trazado 162518" d="M1426.9,1010.868s-12.735,6.809-14.263,14.923c-.888,4.714-5.06,47.291-5.06,47.291l43.088.711s1.2-44.817.866-46.967-3.178-13.768-3.178-13.768-7.8-6.244-8.883-6.244A30.871,30.871,0,0,0,1426.9,1010.868Z" transform="translate(-1405.183 -977.139)" fill="#f9dd89"/>
        <g id="Grupo_154658" data-name="Grupo 154658" transform="translate(17.118 0)">
          <g id="Grupo_154657" data-name="Grupo 154657">
            <path id="Trazado_162519" data-name="Trazado 162519" d="M1540.929,919.718a14.34,14.34,0,0,1,4.366,6.874c2.134,6.4,1.8,13.332,1.442,20.073-4.686.228-9.093-.236-13.08-2.71a185.5,185.5,0,0,1-.471-19.457,3.87,3.87,0,0,1,.784-2.717,3.634,3.634,0,0,1,1.692-.805A37.732,37.732,0,0,1,1540.929,919.718Z" transform="translate(-1512.572 -914.511)" fill="#343766"/>
            <g id="Grupo_154656" data-name="Grupo 154656" transform="translate(10.874 2.442)">
              <g id="Grupo_154655" data-name="Grupo 154655">
                <g id="Grupo_154654" data-name="Grupo 154654">
                  <g id="Grupo_154651" data-name="Grupo 154651" transform="translate(1.645)">
                    <path id="Trazado_162520" data-name="Trazado 162520" d="M1521.589,917.447s4.448,18.119-4.838,17.295-14.57-11.7-11.159-18.368S1519.425,905.483,1521.589,917.447Z" transform="translate(-1504.55 -909.876)" fill="#da8c8d"/>
                    <g id="Grupo_154650" data-name="Grupo 154650" clip-path="url(#clip-path-2)">
                      <path id="Trazado_162521" data-name="Trazado 162521" d="M1523.175,926.63s-1.3,5.523-12.791,3.056h0l-1.838-6.271,17.982-4.375-3.353,7.591" transform="translate(-1505.072 -916.465)" fill="#c17276"/>
                    </g>
                  </g>
                  <g id="Grupo_154653" data-name="Grupo 154653" transform="translate(0 10.165)">
                    <path id="Trazado_162523" data-name="Trazado 162523" d="M1500.353,946.058a74.93,74.93,0,0,1-1.477,15.178,8.04,8.04,0,0,0,4.3,8.92,12.327,12.327,0,0,0,4.992,1.441c4.543.046.1-19.7.1-19.7Z" transform="translate(-1498.695 -946.058)" fill="#da8c8d"/>
                    <g id="Grupo_154652" data-name="Grupo 154652" clip-path="url(#clip-path-3)">
                      <path id="Trazado_162524" data-name="Trazado 162524" d="M1527.541,990.5s-3.372-1-4.07-2.265c0,0,1.67,5.663,4.866,5.871l-.8-3.606" transform="translate(-1516.51 -976.388)" fill="#c17276"/>
                    </g>
                  </g>
                </g>
              </g>
            </g>
            <path id="Trazado_162526" data-name="Trazado 162526" d="M1488.805,909.038a16.559,16.559,0,0,1-10.176,5.346,30.471,30.471,0,0,0-.879,18.723,13.471,13.471,0,0,1-10.113-2.031,21.212,21.212,0,0,1-7-7.735c-2.517-4.49,2.923-9.8,5.8-14.068,1.7-2.521,3.5-5.119,6.156-6.6a14.462,14.462,0,0,1,7.857-1.455,12.228,12.228,0,0,1,6.275,1.788C1488.538,904.25,1489.166,906.865,1488.805,909.038Z" transform="translate(-1459.988 -901.184)" fill="#343766"/>
          </g>
        </g>
        <path id="Trazado_162527" data-name="Trazado 162527" d="M1490.279,1036.389c-.18-3.367-.957-9.986-1.378-13.032a3.112,3.112,0,0,0-.9-1.8l-1.957-1.921c.9,3.934,1.051,13.417,1.051,13.417h-12.258c.085-3.874-7.38-17.09-7.38-17.09l-2.866,1.482s5.5,9.62,6.418,16.136-11.016,54.021-11.016,54.021c6.126,1.8,30.732,1.8,30.732,1.8S1490.365,1038,1490.279,1036.389Z" transform="translate(-1442.87 -983.72)" fill="#39548b"/>
        <path id="Trazado_162528" data-name="Trazado 162528" d="M1431.841,1048.625l5.639,26.3-19.6,7.98s-4.774-19.265-4.5-26.7,9.612-14.653,9.612-14.653Z" transform="translate(-1409.345 -1002.115)" fill="#f9dd89"/>
        <g id="Grupo_154659" data-name="Grupo 154659" transform="translate(29.892 64.863)">
          <rect id="Rectángulo_39408" data-name="Rectángulo 39408" width="42.272" height="42.69" fill="#f1ca89"/>
          <rect id="Rectángulo_39409" data-name="Rectángulo 39409" width="19.096" height="42.69" transform="translate(42.272)" fill="#efa856"/>
          <rect id="Rectángulo_39410" data-name="Rectángulo 39410" width="6.651" height="6.651" transform="translate(19)" fill="#f2f3f7"/>
          <rect id="Rectángulo_39411" data-name="Rectángulo 39411" width="6.651" height="6.651" transform="translate(49.207)" fill="#f2f3f7"/>
        </g>
        <path id="Trazado_162529" data-name="Trazado 162529" d="M1420.4,1150.122l3.764,8.642L1412.4,1153l1.66-16.144,3.123,14.579Z" transform="translate(-1408.648 -1070.645)" fill="#f4c54e"/>
        <path id="Trazado_162530" data-name="Trazado 162530" d="M1482.877,1084.213l-3.747-17.476s5.029,5.734,5.086,9.986Z" transform="translate(-1456.634 -1020.226)" fill="#f4c54e"/>
        <g id="Grupo_154661" data-name="Grupo 154661" transform="translate(11.755 73.52)">
          <path id="Trazado_162531" data-name="Trazado 162531" d="M1484.837,1194.708l-26.129-18.319-3.176-13.514-14.633,5.957s5.859,14.19,7.531,15.576,30.919,12.5,30.919,12.5,1.49,2.619,2.62,2.87c3.576.8,10.347-2.87,10.347-2.87Z" transform="translate(-1440.899 -1162.875)" fill="#da8c8d"/>
          <g id="Grupo_154660" data-name="Grupo 154660" clip-path="url(#clip-path-4)">
            <path id="Trazado_162532" data-name="Trazado 162532" d="M1453.809,1158.558s-10.547,9.659-15.265,10.557l-2.471-6.177,17.182-7.2Z" transform="translate(-1437.43 -1157.742)" fill="#c17276"/>
          </g>
        </g>
      </g>
      <g id="Grupo_154687" data-name="Grupo 154687" transform="translate(620.904 999.49)">
        <path id="Trazado_162537" data-name="Trazado 162537" d="M1128.974,1453.4a.646.646,0,0,1-.109-.009.662.662,0,0,1-.546-.761l13.349-80.85a2.033,2.033,0,0,0-2.01-2.341H1107.61a2.026,2.026,0,0,0-2.007,1.706l-12.637,81.694a.662.662,0,0,1-1.308-.2l12.637-81.7a3.346,3.346,0,0,1,3.315-2.823h32.049a3.358,3.358,0,0,1,3.318,3.875l-13.349,80.856A.663.663,0,0,1,1128.974,1453.4Z" transform="translate(-985.333 -1363.482)" fill="#343766"/>
        <g id="Grupo_154686" data-name="Grupo 154686" transform="translate(0 0)">
          <g id="Grupo_154684" data-name="Grupo 154684">
            <g id="Grupo_154681" data-name="Grupo 154681" transform="translate(7.654)">
              <g id="Grupo_154669" data-name="Grupo 154669" transform="translate(0 44.188)">
                <rect id="Rectángulo_39432" data-name="Rectángulo 39432" width="35.674" height="44.188" fill="#f1ca89"/>
                <rect id="Rectángulo_39433" data-name="Rectángulo 39433" width="27.407" height="44.188" transform="translate(35.674)" fill="#efa856"/>
                <rect id="Rectángulo_39434" data-name="Rectángulo 39434" width="8.828" height="8.828" transform="translate(14.634)" fill="#f2f3f7"/>
              </g>
              <g id="Grupo_154670" data-name="Grupo 154670">
                <rect id="Rectángulo_39435" data-name="Rectángulo 39435" width="35.674" height="44.188" fill="#f1ca89"/>
                <rect id="Rectángulo_39436" data-name="Rectángulo 39436" width="27.407" height="44.188" transform="translate(35.674)" fill="#f1b873"/>
                <rect id="Rectángulo_39437" data-name="Rectángulo 39437" width="8.828" height="8.828" transform="translate(14.634)" fill="#f2f3f7"/>
              </g>
              <g id="Grupo_154671" data-name="Grupo 154671" transform="translate(2.417 43.944)">
                <path id="Trazado_162538" data-name="Trazado 162538" d="M782.325,1508.527H749.312a.244.244,0,1,1,0-.487h33.014a.244.244,0,1,1,0,.487Z" transform="translate(-749.068 -1508.04)" fill="#e5a251"/>
                <path id="Trazado_162539" data-name="Trazado 162539" d="M901.131,1508.527h-24.71a.244.244,0,0,1,0-.487h24.71a.244.244,0,1,1,0,.487Z" transform="translate(-840.467 -1508.04)" fill="#e5a251"/>
              </g>
              <g id="Grupo_154674" data-name="Grupo 154674" transform="translate(63.04 44.188)">
                <rect id="Rectángulo_39438" data-name="Rectángulo 39438" width="35.674" height="44.188" fill="#f1ca89"/>
                <g id="Grupo_154673" data-name="Grupo 154673" transform="translate(35.674)">
                  <rect id="Rectángulo_39439" data-name="Rectángulo 39439" width="27.407" height="44.188" fill="#f1b873"/>
                  <g id="Grupo_154672" data-name="Grupo 154672" clip-path="url(#clip-path-5)">
                    <rect id="Rectángulo_39440" data-name="Rectángulo 39440" width="7.816" height="11.255" transform="translate(1.888 1.875)" fill="#efa856"/>
                  </g>
                </g>
                <rect id="Rectángulo_39442" data-name="Rectángulo 39442" width="8.828" height="8.828" transform="translate(14.634)" fill="#f2f3f7"/>
              </g>
              <g id="Grupo_154675" data-name="Grupo 154675" transform="translate(72.894 12.095)">
                <rect id="Rectángulo_39443" data-name="Rectángulo 39443" width="25.909" height="32.093" fill="#f1ca89"/>
                <rect id="Rectángulo_39444" data-name="Rectángulo 39444" width="19.905" height="32.093" transform="translate(25.909)" fill="#f1b873"/>
                <rect id="Rectángulo_39445" data-name="Rectángulo 39445" width="6.412" height="6.412" transform="translate(10.628)" fill="#f2f3f7"/>
              </g>
              <g id="Grupo_154676" data-name="Grupo 154676" transform="translate(65.457 43.944)">
                <path id="Trazado_162540" data-name="Trazado 162540" d="M1006.713,1508.527H973.7a.244.244,0,0,1,0-.487h33.014a.244.244,0,1,1,0,.487Z" transform="translate(-973.456 -1508.04)" fill="#e5a251"/>
                <path id="Trazado_162541" data-name="Trazado 162541" d="M1125.519,1508.527h-24.71a.244.244,0,1,1,0-.487h24.71a.244.244,0,1,1,0,.487Z" transform="translate(-1064.855 -1508.04)" fill="#e5a251"/>
              </g>
              <g id="Grupo_154678" data-name="Grupo 154678" transform="translate(48.66 20.337)">
                <g id="Grupo_154677" data-name="Grupo 154677" transform="translate(1.903)">
                  <rect id="Rectángulo_39446" data-name="Rectángulo 39446" width="18.528" height="36.98" fill="#f1ca89"/>
                  <rect id="Rectángulo_39447" data-name="Rectángulo 39447" width="10.199" height="36.98" transform="translate(14.837)" fill="#f1b873"/>
                  <rect id="Rectángulo_39448" data-name="Rectángulo 39448" width="3.973" height="5.481" transform="translate(6.064)" fill="#f2f3f7"/>
                </g>
                <rect id="Rectángulo_39449" data-name="Rectángulo 39449" width="1.903" height="35.224" transform="translate(0 1.756)" fill="#efa856"/>
              </g>
              <g id="Grupo_154680" data-name="Grupo 154680" transform="translate(41.215 57.193)">
                <g id="Grupo_154679" data-name="Grupo 154679" transform="translate(2.264)">
                  <rect id="Rectángulo_39450" data-name="Rectángulo 39450" width="25.89" height="30.98" transform="translate(0.203 0.203)" fill="#f1ca89"/>
                  <rect id="Rectángulo_39451" data-name="Rectángulo 39451" width="12.996" height="31.058" transform="translate(26.093 0.125)" fill="#efa856"/>
                  <path id="Trazado_162542" data-name="Trazado 162542" d="M918.393,1555.6H895.429a.2.2,0,0,1,0-.406h22.964a.2.2,0,1,1,0,.406Z" transform="translate(-895.226 -1555.199)" fill="#e5a251"/>
                  <rect id="Rectángulo_39452" data-name="Rectángulo 39452" width="4.965" height="5.735" transform="translate(10.665 0.405)" fill="#f2f3f7"/>
                </g>
                <rect id="Rectángulo_39453" data-name="Rectángulo 39453" width="2.467" height="28.431" transform="translate(0 2.752)" fill="#e5a251"/>
              </g>
            </g>
            <g id="Grupo_154683" data-name="Grupo 154683" transform="translate(0 88.375)">
              <rect id="Rectángulo_39454" data-name="Rectángulo 39454" width="144.467" height="5.431" fill="#343766"/>
              <g id="Grupo_154682" data-name="Grupo 154682" transform="translate(7.995 5.431)">
                <path id="Trazado_162543" data-name="Trazado 162543" d="M753.543,1688.375v-2.854h-7.15v2.854a8.291,8.291,0,1,0,7.15,0Z" transform="translate(-741.676 -1685.521)" fill="#343766"/>
                <path id="Trazado_162544" data-name="Trazado 162544" d="M1170.292,1688.375v-2.854h-7.151v2.854a8.291,8.291,0,1,0,7.151,0Z" transform="translate(-1041.342 -1685.521)" fill="#343766"/>
                <path id="Trazado_162545" data-name="Trazado 162545" d="M1083.785,1688.375v-2.854h-7.15v2.854a8.291,8.291,0,1,0,7.15,0Z" transform="translate(-979.139 -1685.521)" fill="#343766"/>
                <path id="Trazado_162546" data-name="Trazado 162546" d="M830.161,1688.375v-2.854h-7.15v2.854a8.291,8.291,0,1,0,7.15,0Z" transform="translate(-796.769 -1685.521)" fill="#343766"/>
              </g>
            </g>
          </g>
          <g id="Grupo_154685" data-name="Grupo 154685" transform="translate(13.208 101.2)">
            <circle id="Elipse_5017" data-name="Elipse 5017" cx="2.847" cy="2.847" r="2.847" fill="#39548b"/>
            <circle id="Elipse_5018" data-name="Elipse 5018" cx="2.847" cy="2.847" r="2.847" transform="translate(21.756)" fill="#39548b"/>
            <circle id="Elipse_5019" data-name="Elipse 5019" cx="2.847" cy="2.847" r="2.847" transform="translate(93.01)" fill="#39548b"/>
            <circle id="Elipse_5020" data-name="Elipse 5020" cx="2.847" cy="2.847" r="2.847" transform="translate(117.72)" fill="#39548b"/>
          </g>
        </g>
      </g>
      <g id="Grupo_154695" data-name="Grupo 154695" transform="translate(814.114 951.149)">
        <g id="Grupo_154689" data-name="Grupo 154689" transform="translate(42.604 36.149)">
          <rect id="Rectángulo_39455" data-name="Rectángulo 39455" width="87.16" height="104.273" fill="#b2bfdf"/>
          <g id="Grupo_154688" data-name="Grupo 154688" clip-path="url(#clip-path-6)">
            <path id="Trazado_162547" data-name="Trazado 162547" d="M1849.863,1392.109c2.806-.7,86.129,0,86.129,0v80.482h-83.6Z" transform="translate(-1855.66 -1368.318)" fill="#8296c9"/>
          </g>
        </g>
        <path id="Trazado_162548" data-name="Trazado 162548" d="M2213.933,1319.976h-33.195V1215.7l33.195-36.149Z" transform="translate(-2050.975 -1179.554)" fill="#8296c9"/>
        <g id="Grupo_154691" data-name="Grupo 154691" transform="translate(0 140.422)">
          <g id="Grupo_154690" data-name="Grupo 154690">
            <rect id="Rectángulo_39457" data-name="Rectángulo 39457" width="173.624" height="10.367" rx="5.183" fill="#b2bfdf"/>
          </g>
          <rect id="Rectángulo_39458" data-name="Rectángulo 39458" width="152.83" height="9.977" transform="translate(10.397 10.367)" fill="#343766"/>
        </g>
        <g id="Grupo_154692" data-name="Grupo 154692" transform="translate(14.672 67.586)">
          <rect id="Rectángulo_39459" data-name="Rectángulo 39459" width="72.122" height="72.836" fill="#f1ca89"/>
          <rect id="Rectángulo_39460" data-name="Rectángulo 39460" width="32.58" height="72.836" transform="translate(72.122)" fill="#efa856"/>
          <rect id="Rectángulo_39461" data-name="Rectángulo 39461" width="11.348" height="11.348" transform="translate(32.417)" fill="#f2f3f7"/>
          <rect id="Rectángulo_39462" data-name="Rectángulo 39462" width="11.348" height="11.348" transform="translate(83.955)" fill="#f2f3f7"/>
        </g>
        <path id="Trazado_162549" data-name="Trazado 162549" d="M1990.853,1179.554l-33.195,36.149H1870.5l35.622-36.149Z" transform="translate(-1827.894 -1179.554)" fill="#39548b"/>
        <g id="Grupo_154694" data-name="Grupo 154694" transform="translate(58.655 5.661)">
          <path id="Trazado_162550" data-name="Trazado 162550" d="M1971.162,1224.531h-43.531l23.618-24.827h43.531Z" transform="translate(-1927.631 -1199.704)" fill="#343766"/>
          <g id="Grupo_154693" data-name="Grupo 154693" transform="translate(48.565)">
            <path id="Trazado_162551" data-name="Trazado 162551" d="M2170.264,1206.234h-7.812l6.212-6.53h7.813Z" transform="translate(-2145.046 -1199.704)" fill="#b2bfdf"/>
            <path id="Trazado_162552" data-name="Trazado 162552" d="M2139.287,1238.8h-7.812l6.212-6.53h7.813Z" transform="translate(-2122.772 -1223.119)" fill="#b2bfdf"/>
            <path id="Trazado_162553" data-name="Trazado 162553" d="M2108.31,1271.36H2100.5l6.212-6.53h7.813Z" transform="translate(-2100.497 -1246.533)" fill="#b2bfdf"/>
            <path id="Trazado_162554" data-name="Trazado 162554" d="M2206.752,1206.234h-7.813l6.212-6.53h7.813Z" transform="translate(-2171.283 -1199.704)" fill="#b2bfdf"/>
            <path id="Trazado_162555" data-name="Trazado 162555" d="M2175.774,1238.8h-7.812l6.212-6.53h7.813Z" transform="translate(-2149.008 -1223.119)" fill="#b2bfdf"/>
            <path id="Trazado_162556" data-name="Trazado 162556" d="M2144.8,1271.36h-7.813l6.212-6.53h7.813Z" transform="translate(-2126.734 -1246.533)" fill="#b2bfdf"/>
          </g>
        </g>
      </g>
      <g id="Grupo_154723" data-name="Grupo 154723" transform="translate(935.74 864.499)">
        <g id="Grupo_154707" data-name="Grupo 154707" transform="translate(0.886 14.373)">
          <g id="Grupo_154697" data-name="Grupo 154697" transform="translate(34.214 16.931)">
            <path id="Trazado_162557" data-name="Trazado 162557" d="M2329.256,1004.4l-38.134-21.844-3.733,6.151s28.722,28.6,31.122,29.522S2329.256,1004.4,2329.256,1004.4Z" transform="translate(-2287.389 -982.556)" fill="#da8c8d"/>
            <g id="Grupo_154696" data-name="Grupo 154696" clip-path="url(#clip-path-7)">
              <path id="Trazado_162558" data-name="Trazado 162558" d="M2345.566,1050.2l19.946-8.629,3.46,2.829L2354.2,1057.03Z" transform="translate(-2329.222 -1024.991)" fill="#c17276"/>
            </g>
          </g>
          <g id="Grupo_154706" data-name="Grupo 154706" transform="translate(0 0)">
            <rect id="Rectángulo_39463" data-name="Rectángulo 39463" width="29.807" height="37.503" rx="7.127" transform="translate(0 11.181) rotate(-22.031)" fill="#8296c9"/>
            <rect id="Rectángulo_39464" data-name="Rectángulo 39464" width="24.491" height="31.376" transform="translate(3.613 13.024) rotate(-22.031)" fill="#fff"/>
            <path id="Rectángulo_39465" data-name="Rectángulo 39465" d="M0,0H6.894a0,0,0,0,1,0,0V1.918A2.317,2.317,0,0,1,4.577,4.235H2.317A2.317,2.317,0,0,1,0,1.918V0A0,0,0,0,1,0,0Z" transform="translate(10.62 6.883) rotate(-22.031)" fill="#343766"/>
            <g id="Grupo_154699" data-name="Grupo 154699" transform="translate(7.904 8.771)">
              <rect id="Rectángulo_39466" data-name="Rectángulo 39466" width="5.269" height="4.947" transform="translate(0 6.759) rotate(-22.031)" fill="#cad2ea"/>
              <g id="Grupo_154698" data-name="Grupo 154698" transform="translate(6.92 0)">
                <rect id="Rectángulo_39467" data-name="Rectángulo 39467" width="10.553" height="1.09" transform="matrix(0.927, -0.375, 0.375, 0.927, 0, 3.958)" fill="#cad2ea"/>
                <rect id="Rectángulo_39468" data-name="Rectángulo 39468" width="10.553" height="1.09" transform="translate(0.723 5.746) rotate(-22.031)" fill="#cad2ea"/>
                <rect id="Rectángulo_39469" data-name="Rectángulo 39469" width="3.807" height="1.09" transform="matrix(0.927, -0.375, 0.375, 0.927, 1.447, 7.534)" fill="#cad2ea"/>
              </g>
            </g>
            <g id="Grupo_154701" data-name="Grupo 154701" transform="translate(10.461 15.09)">
              <rect id="Rectángulo_39470" data-name="Rectángulo 39470" width="5.269" height="4.947" transform="translate(0 6.759) rotate(-22.031)" fill="#cad2ea"/>
              <g id="Grupo_154700" data-name="Grupo 154700" transform="translate(6.92 0)">
                <rect id="Rectángulo_39471" data-name="Rectángulo 39471" width="10.553" height="1.09" transform="matrix(0.927, -0.375, 0.375, 0.927, 0, 3.958)" fill="#cad2ea"/>
                <rect id="Rectángulo_39472" data-name="Rectángulo 39472" width="10.553" height="1.09" transform="translate(0.723 5.746) rotate(-22.031)" fill="#cad2ea"/>
                <rect id="Rectángulo_39473" data-name="Rectángulo 39473" width="3.807" height="1.09" transform="translate(1.447 7.534) rotate(-22.031)" fill="#cad2ea"/>
              </g>
            </g>
            <g id="Grupo_154703" data-name="Grupo 154703" transform="translate(13.018 21.409)">
              <rect id="Rectángulo_39474" data-name="Rectángulo 39474" width="5.269" height="4.947" transform="translate(0 6.759) rotate(-22.031)" fill="#cad2ea"/>
              <g id="Grupo_154702" data-name="Grupo 154702" transform="translate(6.92 0)">
                <rect id="Rectángulo_39475" data-name="Rectángulo 39475" width="10.553" height="1.09" transform="translate(0 3.958) rotate(-22.031)" fill="#cad2ea"/>
                <rect id="Rectángulo_39476" data-name="Rectángulo 39476" width="10.553" height="1.09" transform="matrix(0.927, -0.375, 0.375, 0.927, 0.723, 5.746)" fill="#cad2ea"/>
                <rect id="Rectángulo_39477" data-name="Rectángulo 39477" width="3.807" height="1.09" transform="matrix(0.927, -0.375, 0.375, 0.927, 1.447, 7.534)" fill="#cad2ea"/>
              </g>
            </g>
            <g id="Grupo_154705" data-name="Grupo 154705" transform="translate(15.575 27.728)">
              <rect id="Rectángulo_39478" data-name="Rectángulo 39478" width="5.269" height="4.947" transform="translate(0 6.759) rotate(-22.031)" fill="#cad2ea"/>
              <g id="Grupo_154704" data-name="Grupo 154704" transform="translate(6.92 0)">
                <rect id="Rectángulo_39479" data-name="Rectángulo 39479" width="10.553" height="1.09" transform="translate(0 3.958) rotate(-22.031)" fill="#cad2ea"/>
                <rect id="Rectángulo_39480" data-name="Rectángulo 39480" width="10.553" height="1.09" transform="matrix(0.927, -0.375, 0.375, 0.927, 0.723, 5.746)" fill="#cad2ea"/>
                <rect id="Rectángulo_39481" data-name="Rectángulo 39481" width="3.807" height="1.09" transform="translate(1.447 7.534) rotate(-22.031)" fill="#cad2ea"/>
              </g>
            </g>
          </g>
          <path id="Trazado_162560" data-name="Trazado 162560" d="M2276,976.854l-4.367-2.228s-5.5,5.455-5.266,5.6a4.667,4.667,0,0,0,2.732,0c1.038-.378,4.008-1.955,4.008-1.955l1.26,3.114Z" transform="translate(-2238.055 -959.923)" fill="#da8c8d"/>
        </g>
        <g id="Grupo_154710" data-name="Grupo 154710" transform="translate(72.351 99.007)">
          <g id="Grupo_154708" data-name="Grupo 154708" transform="translate(7.2)">
            <path id="Trazado_162561" data-name="Trazado 162561" d="M2480.48,1223.542l2.011,7.916a27.978,27.978,0,0,1,.667,3.46c.7,5.675.391,11.513.112,17.219-.97,19.842-6.594,41.322-6.594,41.322L2488,1359.64l-5.921,1.637s-24.172-50.747-28.182-68.76c-.185-.831-.389-1.73-.609-2.688l-7.678-61.44Z" transform="translate(-2445.608 -1223.542)" fill="#39548b"/>
            <path id="Trazado_162562" data-name="Trazado 162562" d="M2553.587,1705.772l-7.433,1.644,1.181,3.475s-8,2.584-11.054,7.81l18.979-3.744Z" transform="translate(-2510.807 -1570.293)" fill="#1f1949"/>
          </g>
          <g id="Grupo_154709" data-name="Grupo 154709" transform="translate(0 2.607)">
            <path id="Trazado_162563" data-name="Trazado 162563" d="M2458.643,1234.319l-.135,9.7a88.631,88.631,0,0,1-2.258,18.926c-4.52,19.344-13.911,39.465-13.911,39.465l-.755,67.138-6.119.547s-14.659-54.264-15.368-72.7c-.033-.85-.072-1.772-.116-2.753l3.488-61.82Z" transform="translate(-2419.98 -1232.821)" fill="#39548b"/>
            <path id="Trazado_162564" data-name="Trazado 162564" d="M2449.118,1717.59l-7.608.281.538,3.631s-8.337,1.1-12.277,5.7h19.342Z" transform="translate(-2427.02 -1581.397)" fill="#1f1949"/>
          </g>
          <path id="Trazado_162565" data-name="Trazado 162565" d="M2498.9,1378.247l.187-16.627s14.227-29.446,15.233-46.46c0,0-2.418,26.767-7.71,43.128l-2.308,33.118Z" transform="translate(-2476.726 -1289.421)" fill="#343766"/>
        </g>
        <g id="Grupo_154717" data-name="Grupo 154717" transform="translate(84.903 3.345)">
          <g id="Grupo_154716" data-name="Grupo 154716">
            <g id="Grupo_154715" data-name="Grupo 154715">
              <g id="Grupo_154714" data-name="Grupo 154714">
                <g id="Grupo_154713" data-name="Grupo 154713">
                  <g id="Grupo_154712" data-name="Grupo 154712">
                    <path id="Trazado_162566" data-name="Trazado 162566" d="M2468.487,888.981c5.113-11.519,16.654-4.043,18.341,3.526.742,3.333-.834,6.949-3.626,9.825a60.526,60.526,0,0,0-.856,14.816s-7.361,3.575-11.834,2.488c-2.474-.6-.737-6.62,1.31-11.88a13.392,13.392,0,0,1-2.9-.136C2459.594,906.134,2468.487,888.981,2468.487,888.981Z" transform="translate(-2464.659 -883.039)" fill="#da8c8d"/>
                    <g id="Grupo_154711" data-name="Grupo 154711" clip-path="url(#clip-path-8)">
                      <path id="Trazado_162567" data-name="Trazado 162567" d="M2469.238,962.067c.11.117,5.888-.038,8.281-1.2a5.477,5.477,0,0,1-3.576,3.4c-2.832.868-4.705-2.194-4.705-2.194" transform="translate(-2467.952 -939)" fill="#c17276"/>
                    </g>
                  </g>
                </g>
              </g>
            </g>
          </g>
        </g>
        <g id="Grupo_154718" data-name="Grupo 154718" transform="translate(72.402 32.882)">
          <path id="Trazado_162569" data-name="Trazado 162569" d="M2422.765,1056.447l-1.135-19.826a70.768,70.768,0,0,1,7.653-36.751c3.08-5.913,6.8-10.844,10.84-11.483,10.763-1.7,16.042,7.19,17.085,14.177s3.53,53.883,3.53,53.883h-40.575" transform="translate(-2420.164 -988.175)" fill="#f9dd89"/>
        </g>
        <g id="Grupo_154720" data-name="Grupo 154720" transform="translate(72.99 32.617)">
          <path id="Trazado_162570" data-name="Trazado 162570" d="M2459.311,1002.317a17.944,17.944,0,0,0-4.762-11.3c-3.833-4.089-14.942-6.275-19.119.948,0,0,16.425.109,15.409,17.04-.633,10.552-3.927,23.371-28.583,27.867v32.46l2.664.577a53.224,53.224,0,0,0,37.221-5.552l4.762-2.66Z" transform="translate(-2422.257 -987.232)" fill="#39548b"/>
          <g id="Grupo_154719" data-name="Grupo 154719" clip-path="url(#clip-path-9)">
            <path id="Trazado_162571" data-name="Trazado 162571" d="M2523.119,1128.813l-19.029,7.305,1,7.66,20.074-7.358Z" transform="translate(-2481.1 -1089.037)" fill="#fff"/>
            <path id="Trazado_162572" data-name="Trazado 162572" d="M2527.863,1167.739l-19.08,6.914,1.049,8.051,20.074-7.358Z" transform="translate(-2484.474 -1117.026)" fill="#fff"/>
          </g>
        </g>
        <path id="Trazado_162574" data-name="Trazado 162574" d="M2429.1,1261.821s10.674,2.629,20.24,1.332,21.3-8.845,21.3-8.845-15.611,13.36-24.928,14.242a34.783,34.783,0,0,1-16.831-2.781Z" transform="translate(-2354.029 -1146.657)" fill="#343766"/>
        <path id="Trazado_162575" data-name="Trazado 162575" d="M2392.032,1004.061l-30.13,24.385,7.268,19.827s25.228-7.178,27.208-12.682S2392.032,1004.061,2392.032,1004.061Z" transform="translate(-2305.868 -966.715)" fill="#f9dd89"/>
        <path id="Trazado_162576" data-name="Trazado 162576" d="M2425.063,1119.022s13.735-5.359,18.911-11.843c0,0,1.453,12.424-18.779,15.763Z" transform="translate(-2351.284 -1040.863)" fill="#f4c54e"/>
        <g id="Grupo_154722" data-name="Grupo 154722" transform="translate(0 63.344)">
          <path id="Trazado_162577" data-name="Trazado 162577" d="M2224.7,1111.962l-5.631-15.363-6.756,5.062-36.842,19.885s-7.491,2.468-7.694,2.721-5.322,8.462-5.322,8.462,1.636.672,2.27,0,4.6-5.4,4.6-5.4.72,2.706,2.05,3.4,4.877-.063,5.573-.634,2.769-2.934,2.77-2.934c4.687-1.359,36.966-10.723,37.681-11.009C2218.167,1115.843,2224.7,1111.962,2224.7,1111.962Z" transform="translate(-2162.452 -1096.599)" fill="#da8c8d"/>
          <g id="Grupo_154721" data-name="Grupo 154721" clip-path="url(#clip-path-10)">
            <path id="Trazado_162578" data-name="Trazado 162578" d="M2352.124,1091.434s-2.6,22.1-1.619,22.661,12.386-6.615,12.386-6.615l-7.389-17.453Z" transform="translate(-2297.512 -1091.873)" fill="#c17276"/>
          </g>
        </g>
        <path id="Trazado_162580" data-name="Trazado 162580" d="M2507.727,873.105c-4.945-1.509-6.7,1.009-7.322,2.847-2.95-3.092-6.763-5.144-9.164-4.779-3.893.593-6.539,6.1-6.539,6.1s-1.239,4.841,3.41,9.067c0,0-.071-2.376,1.263-2.33s2.336,2.57,1.851,3.9a7.365,7.365,0,0,1-1.851,2.113l1.611,3.607a4.457,4.457,0,0,0,4.07,2.639h2.07s8.843-7.4,7.235-13.664a13.509,13.509,0,0,0-1.856-4.015,4.777,4.777,0,0,1,1.325.012c2.922.4,2.17,9.354,3.857,18.624s11.65,7.827,11.65,7.827S2519.335,876.647,2507.727,873.105Z" transform="translate(-2394.06 -871.131)" fill="#343766"/>
        <path id="Trazado_162581" data-name="Trazado 162581" d="M2468.337,874.12a6.577,6.577,0,0,0-5.347-1.708c-3.416.371-6.906,9.431-6.906,9.431s6.684-.817,9.357-2.673A7.28,7.28,0,0,0,2468.337,874.12Z" transform="translate(-2373.589 -872.021)" fill="#343766"/>
      </g>
      <g id="Grupo_154741" data-name="Grupo 154741" transform="translate(1057.016 861.908)">
        <g id="Grupo_154740" data-name="Grupo 154740" transform="translate(0 0)">
          <g id="Grupo_154739" data-name="Grupo 154739" transform="translate(0 7.774)">
            <g id="Grupo_154738" data-name="Grupo 154738">
              <g id="Grupo_154725" data-name="Grupo 154725" transform="translate(19.482 50.486)">
                <g id="Grupo_154724" data-name="Grupo 154724">
                  <path id="Trazado_162582" data-name="Trazado 162582" d="M2852.453,1073.49s4.292,16.067,7.423,17.438l7.028-6.86-12.34-14.786-2.111,4.209" transform="translate(-2852.453 -1069.281)" fill="#c17276"/>
                </g>
              </g>
              <g id="Grupo_154726" data-name="Grupo 154726" transform="translate(2.743 99.036)">
                <path id="Trazado_162583" data-name="Trazado 162583" d="M2849.417,1242.093s-13.962,42.949-16.622,60.384.748,72.175.748,72.175l5.454-.683,17.512-64.649,21.9-54.249-28.992-12.977" transform="translate(-2820.849 -1242.093)" fill="#39548b"/>
                <path id="Trazado_162584" data-name="Trazado 162584" d="M2811.651,1706.356l-6.8-1.064-.17,3.5s-7.492.43-11.808,4.053l17.111,2.272Z" transform="translate(-2792.871 -1575.159)" fill="#1f1949"/>
              </g>
              <path id="Trazado_162585" data-name="Trazado 162585" d="M2984.469,1252.034h-.739l.022-.212-27.634.111-3.587,61.954c-.343,17.633,10.239,71.449,10.239,71.449l5.316-1.4,8.852-66.391,2.81-27.1h0C2989.494,1267.773,2984.469,1252.034,2984.469,1252.034Z" transform="translate(-2904.927 -1150.053)" fill="#39548b"/>
              <path id="Trazado_162586" data-name="Trazado 162586" d="M2965.032,1718.687l-6.884-.009.369,3.487s-7.338,1.574-11.047,5.816l17.257-.379Z" transform="translate(-2901.293 -1485.749)" fill="#1f1949"/>
              <g id="Grupo_154728" data-name="Grupo 154728" transform="translate(17.956 28.917)">
                <path id="Trazado_162587" data-name="Trazado 162587" d="M2921.023,1031.852s-7.151-41.009-37.194-39.292c-20.676,1.182-24.148,10.138-24.148,10.138s-9.605,17.362-12.661,30.758l10.416,3.812-2.6,34.463s41.863,9.932,56.122-5.536l-6.356-31.069Z" transform="translate(-2847.02 -992.507)" fill="#f9dd89"/>
                <g id="Grupo_154727" data-name="Grupo 154727" clip-path="url(#clip-path-11)">
                  <path id="Trazado_162588" data-name="Trazado 162588" d="M2885.082,996.384s-12.739,21.038-30.8,20.128c0,0,4.244-24.545,17.036-28.73s17.733.052,17.733.052l-3.969,8.549" transform="translate(-2852.241 -987.782)" fill="#f4c54e"/>
                  <path id="Trazado_162589" data-name="Trazado 162589" d="M3031.483,1096.592l-5.037-17.606s-8,34.291-7.289,44.149,9.157,16,9.157,16l13.37-10.712-10.2-31.828" transform="translate(-2970.764 -1054.69)" fill="#f4c54e"/>
                </g>
              </g>
              <g id="Grupo_154733" data-name="Grupo 154733" transform="translate(37.13)">
                <g id="Grupo_154732" data-name="Grupo 154732" transform="translate(0.001)">
                  <g id="Grupo_154731" data-name="Grupo 154731">
                    <g id="Grupo_154730" data-name="Grupo 154730">
                      <path id="Trazado_162591" data-name="Trazado 162591" d="M2921.625,915.952c-9.632,1.079-5.444-17.86-5.444-17.86,1.962-12.487,13.973-9.368,17.679-2.522a11.111,11.111,0,0,1,.666,7.862c.119,4.608.687,12.161,2.954,18.09,0,0-6.325,5.431-11.045,5.589-2.62.087-2.509-6.225-1.894-11.863A12.332,12.332,0,0,1,2921.625,915.952Z" transform="translate(-2915.275 -889.58)" fill="#da8c8d"/>
                      <g id="Grupo_154729" data-name="Grupo 154729" clip-path="url(#clip-path-12)">
                        <path id="Trazado_162592" data-name="Trazado 162592" d="M2911.912,897.146s4.806,3.932,12.117-1.969,2.667-9.253,2.667-9.253l-8.35-2.165-8.252,7.461,1.818,5.926" transform="translate(-2911.55 -885.394)" fill="#c17276"/>
                      </g>
                    </g>
                    <path id="Trazado_162594" data-name="Trazado 162594" d="M2947.317,971.746s1.44-.5,4.873-3.631c0,0-.2,6.839-5.236,9.262C2946.954,977.377,2947.189,972.859,2947.317,971.746Z" transform="translate(-2938.054 -946.051)" fill="#c17276"/>
                  </g>
                </g>
                <path id="Trazado_162595" data-name="Trazado 162595" d="M2915.3,951.715s3.269-1.432,5.508-.759a55.605,55.605,0,0,1,6.692,3.012l2.641.222-.734,1.457s-5.681,5.857-8.807,4.913S2914.966,958.094,2915.3,951.715Z" transform="translate(-2915.271 -933.583)" fill="#343766"/>
                <path id="Trazado_162596" data-name="Trazado 162596" d="M2921.069,961.5a12.213,12.213,0,0,0,3.9.449,2.557,2.557,0,0,1-2.586,1.3C2920.4,963.156,2921.069,961.5,2921.069,961.5Z" transform="translate(-2919.363 -941.296)" fill="#fff"/>
              </g>
              <g id="Grupo_154735" data-name="Grupo 154735" transform="translate(0 49.003)">
                <g id="Grupo_154734" data-name="Grupo 154734">
                  <rect id="Rectángulo_39482" data-name="Rectángulo 39482" width="49.092" height="64.355" fill="#f1ca89"/>
                  <rect id="Rectángulo_39483" data-name="Rectángulo 39483" width="24.546" height="64.355" transform="translate(49.092)" fill="#f1b873"/>
                </g>
                <rect id="Rectángulo_39484" data-name="Rectángulo 39484" width="11.257" height="15.793" transform="translate(22.222)" fill="#f2f3f7"/>
              </g>
              <path id="Trazado_162597" data-name="Trazado 162597" d="M2928.272,1336.458l-.858-19.8-10.7,48.542Z" transform="translate(-2879.18 -1196.674)" fill="#343766"/>
              <g id="Grupo_154737" data-name="Grupo 154737" transform="translate(44.464 68.764)">
                <path id="Trazado_162598" data-name="Trazado 162598" d="M2986.345,1134.343l-14.841,2.832,2.036,11.328-20.226,28.4-11.939,2.031,3.478,1.937a11.423,11.423,0,0,0,5.49,1.44c1.028.006,2.194-.017,3.3-.106,3-.24,7.482-3.27,7.482-3.27s27.627-26.018,27.743-28.344S2986.345,1134.343,2986.345,1134.343Z" transform="translate(-2941.375 -1134.343)" fill="#da8c8d"/>
                <g id="Grupo_154736" data-name="Grupo 154736" clip-path="url(#clip-path-13)">
                  <path id="Trazado_162599" data-name="Trazado 162599" d="M3057.962,1126.1s-10.076,7.157-17.389,8.869l-3.112-10.113,18.36-4.637Z" transform="translate(-3010.466 -1124.188)" fill="#c17276"/>
                </g>
              </g>
            </g>
          </g>
          <path id="Trazado_162601" data-name="Trazado 162601" d="M2918.712,867.236s7.939-8.99,16.044-3.615c9.741,6.461,3.839,13.208,3.839,13.208S2924.33,870.093,2918.712,867.236Z" transform="translate(-2880.615 -861.908)" fill="#f4c54e"/>
          <path id="Trazado_162602" data-name="Trazado 162602" d="M2912.015,884.747s-22.539-13.818-26.387-9.317,8.708,11.84,8.708,11.84S2894.124,876.756,2912.015,884.747Z" transform="translate(-2856.298 -870.983)" fill="#f9dd89"/>
          <path id="Trazado_162603" data-name="Trazado 162603" d="M2944.383,900.295s4.157-.035,12.646,4.137l-1.328,11.619h0c-1.444-.444-3.439-.171-4-1.574l-1.012-2.843s2.341-4.1.646-5.014c-2.894-1.561-2.381,2.281-2.381,2.281S2943.878,904.483,2944.383,900.295Z" transform="translate(-2899.048 -889.51)" fill="#343766"/>
        </g>
        <path id="Trazado_162604" data-name="Trazado 162604" d="M2795.855,1293.072h10.806s-5.248,2.588-8.028,2.053A4.829,4.829,0,0,1,2795.855,1293.072Z" transform="translate(-2792.274 -1171.94)" fill="#da8c8d"/>
      </g>
    </g>
  </g>
</svg>
